<svg width="242" height="243" viewBox="0 0 242 243" fill="none" xmlns="http://www.w3.org/2000/svg">
<g id="Group 7">
<path id="Union (Stroke) (Stroke)" fill-rule="evenodd" clip-rule="evenodd" d="M134.662 170.354L149.941 174.188C154.148 175.243 158.569 175.809 163.147 175.809C192.986 175.809 217.175 151.619 217.175 121.78C217.175 91.9411 192.986 67.7517 163.147 67.7517C158.569 67.7517 154.148 68.317 149.941 69.3727L134.662 73.2066L128.566 58.6806C120.384 39.1807 101.124 25.5367 78.717 25.5367C48.8779 25.5367 24.6885 49.7261 24.6885 79.5653C24.6885 91.3505 28.4406 102.205 34.8182 111.07L42.5226 121.78L34.8182 132.49C28.4406 141.356 24.6885 152.21 24.6885 163.995C24.6885 193.834 48.8779 218.024 78.717 218.024C101.124 218.024 120.384 204.38 128.566 184.88L134.662 170.354ZM138.364 65.8043L134.356 56.2512C125.228 34.499 103.738 19.2582 78.717 19.2582C45.4103 19.2582 18.4099 46.2586 18.4099 79.5653C18.4099 92.7091 22.6008 104.838 29.7214 114.737L34.7883 121.78L29.7214 128.824C22.6008 138.722 18.4099 150.851 18.4099 163.995C18.4099 197.302 45.4103 224.302 78.717 224.302C103.738 224.302 125.228 209.061 134.356 187.309L138.364 177.756L148.413 180.277C153.116 181.458 158.049 182.087 163.147 182.087C196.454 182.087 223.454 155.087 223.454 121.78C223.454 88.4735 196.454 61.4731 163.147 61.4731C158.049 61.4731 153.116 62.1029 148.413 63.2829L138.364 65.8043ZM149.077 44.3893C136.17 18.6226 109.518 0.918213 78.717 0.918213C35.2814 0.918213 0.0699463 36.1297 0.0699463 79.5653C0.0699463 95.092 4.5753 109.582 12.3492 121.78C4.5753 133.979 0.0699523 148.468 0.06995 163.995C0.06995 207.431 35.2814 242.642 78.717 242.642C109.518 242.642 136.17 224.938 149.077 199.171C153.646 199.997 158.348 200.427 163.147 200.427C206.582 200.427 241.794 165.216 241.794 121.78C241.794 78.3446 206.582 43.1332 163.147 43.1332C158.348 43.1332 153.646 43.5637 149.077 44.3893ZM145.478 191.976C151.133 193.395 157.052 194.149 163.147 194.149C203.115 194.149 235.515 161.748 235.515 121.78C235.515 81.8122 203.115 49.4117 163.147 49.4117C157.052 49.4117 151.133 50.1652 145.478 51.5842C134.536 25.51 108.765 7.19676 78.717 7.19676C38.749 7.19676 6.34849 39.5972 6.34849 79.5653C6.34849 95.3197 11.3827 109.898 19.9302 121.78C11.3827 133.662 6.3485 148.241 6.34849 163.995C6.34849 203.963 38.749 236.364 78.717 236.364C108.765 236.364 134.536 218.05 145.478 191.976Z" fill="#BB943F"/>
<path id="Subtract (Stroke)" fill-rule="evenodd" clip-rule="evenodd" d="M70.7437 121.78C77.9523 130.511 87.8024 137.4 99.2619 141.415C94.756 136.134 92.0385 129.267 92.0385 121.78C92.0385 114.294 94.756 107.427 99.2619 102.146C87.8024 106.161 77.9523 113.05 70.7437 121.78ZM116.124 92.2163C93.7694 94.0418 74.3978 105.377 62.8511 121.78C74.3978 138.184 93.7696 149.519 116.124 151.344C118.05 151.502 119.998 151.588 121.965 151.602C122.143 151.603 122.32 151.603 122.497 151.603C124.066 151.603 125.622 151.557 127.165 151.465C150.238 150.091 170.304 138.6 182.143 121.78C170.304 104.961 150.238 93.4703 127.165 92.0959C125.622 92.0039 124.066 91.9573 122.497 91.9573C122.32 91.9573 122.143 91.9579 121.965 91.9591C119.998 91.9723 118.05 92.059 116.124 92.2163ZM126.402 98.3411C125.133 98.0982 123.829 97.9575 122.497 97.9278C122.32 97.9239 122.143 97.9219 121.965 97.9219C120.272 97.9219 118.619 98.1016 117.026 98.443C106.337 100.734 98.317 110.313 98.317 121.78C98.317 133.248 106.337 142.826 117.027 145.118C118.62 145.459 120.272 145.639 121.965 145.639C122.143 145.639 122.32 145.637 122.497 145.633C123.829 145.603 125.133 145.463 126.402 145.22C137.342 143.125 145.614 133.427 145.614 121.78C145.614 110.134 137.342 100.436 126.402 98.3411ZM144.225 141.924C148.996 136.578 151.892 129.51 151.892 121.78C151.892 114.051 148.996 106.983 144.225 101.637C156.328 105.564 166.728 112.669 174.251 121.78C166.728 130.892 156.328 137.997 144.225 141.924Z" fill="#BB943F"/>
<path id="Subtract (Stroke)_2" fill-rule="evenodd" clip-rule="evenodd" d="M45.564 121.78C62.6485 143.546 90.6598 157.882 122.502 157.882C154.345 157.882 182.356 143.546 199.441 121.78C182.356 100.014 154.345 85.6784 122.502 85.6784C90.6598 85.6784 62.6485 100.014 45.564 121.78ZM207.263 121.78C189.313 147.28 158.057 164.16 122.502 164.16C86.9476 164.16 55.6915 147.28 37.742 121.78C55.6915 96.2805 86.9476 79.3999 122.502 79.3999C158.057 79.3999 189.313 96.2805 207.263 121.78Z" fill="#BB943F"/>
<path id="Ellipse 32 (Stroke)" fill-rule="evenodd" clip-rule="evenodd" d="M120.937 123.35C123.538 123.35 125.646 121.242 125.646 118.641C125.646 116.04 123.538 113.932 120.937 113.932C118.336 113.932 116.228 116.04 116.228 118.641C116.228 121.242 118.336 123.35 120.937 123.35ZM120.937 129.628C127.005 129.628 131.924 124.709 131.924 118.641C131.924 112.573 127.005 107.654 120.937 107.654C114.869 107.654 109.95 112.573 109.95 118.641C109.95 124.709 114.869 129.628 120.937 129.628Z" fill="#BB943F"/>
</g>
</svg>
