<svg width="631" height="461" viewBox="0 0 631 461" fill="none" xmlns="http://www.w3.org/2000/svg">
<g filter="url(#filter0_d_438_269)">
<circle cx="79.0664" cy="316.066" r="22.0664" fill="url(#paint0_linear_438_269)"/>
<circle cx="79.0664" cy="316.066" r="21.5664" stroke="black"/>
</g>
<mask id="path-3-outside-1_438_269" maskUnits="userSpaceOnUse" x="64" y="310" width="32" height="11" fill="black">
<rect fill="white" x="64" y="310" width="32" height="11"/>
<path d="M64.6903 320V318.918L67.8949 314.95V314.903H64.8011V313.455H70.081V314.635L67.0724 318.504V318.551H70.1918V320H64.6903ZM77.0046 311.273H78.8498V316.94C78.8498 317.577 78.6978 318.134 78.3938 318.611C78.0927 319.088 77.6708 319.46 77.1282 319.727C76.5856 319.991 75.9535 320.124 75.2319 320.124C74.5075 320.124 73.8739 319.991 73.3313 319.727C72.7887 319.46 72.3668 319.088 72.0657 318.611C71.7646 318.134 71.614 317.577 71.614 316.94V311.273H73.4592V316.783C73.4592 317.115 73.5316 317.411 73.6765 317.669C73.8242 317.928 74.0316 318.131 74.2987 318.278C74.5657 318.426 74.8768 318.5 75.2319 318.5C75.5898 318.5 75.9009 318.426 76.1651 318.278C76.4322 318.131 76.6381 317.928 76.783 317.669C76.9308 317.411 77.0046 317.115 77.0046 316.783V311.273ZM85.1023 313.783C85.0682 313.439 84.9219 313.172 84.6634 312.982C84.4048 312.791 84.054 312.696 83.6108 312.696C83.3097 312.696 83.0554 312.739 82.848 312.824C82.6406 312.906 82.4815 313.021 82.3707 313.169C82.2628 313.317 82.2088 313.484 82.2088 313.672C82.2031 313.828 82.2358 313.964 82.3068 314.081C82.3807 314.197 82.4815 314.298 82.6094 314.384C82.7372 314.466 82.8849 314.538 83.0526 314.601C83.2202 314.661 83.3991 314.712 83.5895 314.754L84.3736 314.942C84.7543 315.027 85.1037 315.141 85.4219 315.283C85.7401 315.425 86.0156 315.599 86.2486 315.807C86.4815 316.014 86.6619 316.259 86.7898 316.54C86.9205 316.821 86.9872 317.143 86.9901 317.507C86.9872 318.041 86.8509 318.504 86.581 318.896C86.3139 319.286 85.9276 319.588 85.4219 319.804C84.919 320.017 84.3125 320.124 83.6023 320.124C82.8977 320.124 82.2841 320.016 81.7614 319.8C81.2415 319.584 80.8352 319.264 80.5426 318.841C80.2528 318.415 80.1009 317.888 80.0866 317.26H81.8722C81.892 317.553 81.9759 317.797 82.1236 317.993C82.2741 318.186 82.4744 318.332 82.7244 318.432C82.9773 318.528 83.2628 318.577 83.581 318.577C83.8935 318.577 84.1648 318.531 84.3949 318.44C84.6278 318.349 84.8082 318.223 84.9361 318.061C85.0639 317.899 85.1278 317.713 85.1278 317.503C85.1278 317.307 85.0696 317.142 84.9531 317.009C84.8395 316.875 84.6719 316.761 84.4503 316.668C84.2315 316.574 83.9631 316.489 83.6449 316.412L82.6946 316.173C81.9588 315.994 81.3778 315.714 80.9517 315.334C80.5256 314.953 80.3139 314.44 80.3168 313.795C80.3139 313.267 80.4545 312.805 80.7386 312.411C81.0256 312.016 81.419 311.707 81.919 311.486C82.419 311.264 82.9872 311.153 83.6236 311.153C84.2713 311.153 84.8366 311.264 85.3196 311.486C85.8054 311.707 86.1832 312.016 86.4531 312.411C86.723 312.805 86.8622 313.263 86.8707 313.783H85.1023ZM91.3249 320H88.2312V311.273H91.3505C92.2283 311.273 92.984 311.447 93.6175 311.797C94.2511 312.143 94.7383 312.642 95.0792 313.293C95.4229 313.943 95.5948 314.722 95.5948 315.628C95.5948 316.537 95.4229 317.318 95.0792 317.972C94.7383 318.625 94.2482 319.126 93.609 319.476C92.9727 319.825 92.2113 320 91.3249 320ZM90.0763 318.419H91.2482C91.7937 318.419 92.2525 318.322 92.6246 318.129C92.9996 317.933 93.2809 317.631 93.4684 317.222C93.6587 316.81 93.7539 316.278 93.7539 315.628C93.7539 314.983 93.6587 314.456 93.4684 314.047C93.2809 313.638 93.0011 313.337 92.6289 313.143C92.2567 312.95 91.7979 312.854 91.2525 312.854H90.0763V318.419Z"/>
</mask>
<path d="M64.6903 320V318.918L67.8949 314.95V314.903H64.8011V313.455H70.081V314.635L67.0724 318.504V318.551H70.1918V320H64.6903ZM77.0046 311.273H78.8498V316.94C78.8498 317.577 78.6978 318.134 78.3938 318.611C78.0927 319.088 77.6708 319.46 77.1282 319.727C76.5856 319.991 75.9535 320.124 75.2319 320.124C74.5075 320.124 73.8739 319.991 73.3313 319.727C72.7887 319.46 72.3668 319.088 72.0657 318.611C71.7646 318.134 71.614 317.577 71.614 316.94V311.273H73.4592V316.783C73.4592 317.115 73.5316 317.411 73.6765 317.669C73.8242 317.928 74.0316 318.131 74.2987 318.278C74.5657 318.426 74.8768 318.5 75.2319 318.5C75.5898 318.5 75.9009 318.426 76.1651 318.278C76.4322 318.131 76.6381 317.928 76.783 317.669C76.9308 317.411 77.0046 317.115 77.0046 316.783V311.273ZM85.1023 313.783C85.0682 313.439 84.9219 313.172 84.6634 312.982C84.4048 312.791 84.054 312.696 83.6108 312.696C83.3097 312.696 83.0554 312.739 82.848 312.824C82.6406 312.906 82.4815 313.021 82.3707 313.169C82.2628 313.317 82.2088 313.484 82.2088 313.672C82.2031 313.828 82.2358 313.964 82.3068 314.081C82.3807 314.197 82.4815 314.298 82.6094 314.384C82.7372 314.466 82.8849 314.538 83.0526 314.601C83.2202 314.661 83.3991 314.712 83.5895 314.754L84.3736 314.942C84.7543 315.027 85.1037 315.141 85.4219 315.283C85.7401 315.425 86.0156 315.599 86.2486 315.807C86.4815 316.014 86.6619 316.259 86.7898 316.54C86.9205 316.821 86.9872 317.143 86.9901 317.507C86.9872 318.041 86.8509 318.504 86.581 318.896C86.3139 319.286 85.9276 319.588 85.4219 319.804C84.919 320.017 84.3125 320.124 83.6023 320.124C82.8977 320.124 82.2841 320.016 81.7614 319.8C81.2415 319.584 80.8352 319.264 80.5426 318.841C80.2528 318.415 80.1009 317.888 80.0866 317.26H81.8722C81.892 317.553 81.9759 317.797 82.1236 317.993C82.2741 318.186 82.4744 318.332 82.7244 318.432C82.9773 318.528 83.2628 318.577 83.581 318.577C83.8935 318.577 84.1648 318.531 84.3949 318.44C84.6278 318.349 84.8082 318.223 84.9361 318.061C85.0639 317.899 85.1278 317.713 85.1278 317.503C85.1278 317.307 85.0696 317.142 84.9531 317.009C84.8395 316.875 84.6719 316.761 84.4503 316.668C84.2315 316.574 83.9631 316.489 83.6449 316.412L82.6946 316.173C81.9588 315.994 81.3778 315.714 80.9517 315.334C80.5256 314.953 80.3139 314.44 80.3168 313.795C80.3139 313.267 80.4545 312.805 80.7386 312.411C81.0256 312.016 81.419 311.707 81.919 311.486C82.419 311.264 82.9872 311.153 83.6236 311.153C84.2713 311.153 84.8366 311.264 85.3196 311.486C85.8054 311.707 86.1832 312.016 86.4531 312.411C86.723 312.805 86.8622 313.263 86.8707 313.783H85.1023ZM91.3249 320H88.2312V311.273H91.3505C92.2283 311.273 92.984 311.447 93.6175 311.797C94.2511 312.143 94.7383 312.642 95.0792 313.293C95.4229 313.943 95.5948 314.722 95.5948 315.628C95.5948 316.537 95.4229 317.318 95.0792 317.972C94.7383 318.625 94.2482 319.126 93.609 319.476C92.9727 319.825 92.2113 320 91.3249 320ZM90.0763 318.419H91.2482C91.7937 318.419 92.2525 318.322 92.6246 318.129C92.9996 317.933 93.2809 317.631 93.4684 317.222C93.6587 316.81 93.7539 316.278 93.7539 315.628C93.7539 314.983 93.6587 314.456 93.4684 314.047C93.2809 313.638 93.0011 313.337 92.6289 313.143C92.2567 312.95 91.7979 312.854 91.2525 312.854H90.0763V318.419Z" fill="black"/>
<path d="M64.6903 320H64.4903V320.2H64.6903V320ZM64.6903 318.918L64.5348 318.792L64.4903 318.847V318.918H64.6903ZM67.8949 314.95L68.0505 315.076L68.0949 315.021V314.95H67.8949ZM67.8949 314.903H68.0949V314.703H67.8949V314.903ZM64.8011 314.903H64.6011V315.103H64.8011V314.903ZM64.8011 313.455V313.255H64.6011V313.455H64.8011ZM70.081 313.455H70.281V313.255H70.081V313.455ZM70.081 314.635L70.2389 314.758L70.281 314.704V314.635H70.081ZM67.0724 318.504L66.9146 318.381L66.8724 318.436V318.504H67.0724ZM67.0724 318.551H66.8724V318.751H67.0724V318.551ZM70.1918 318.551H70.3918V318.351H70.1918V318.551ZM70.1918 320V320.2H70.3918V320H70.1918ZM64.8903 320V318.918H64.4903V320H64.8903ZM64.8459 319.043L68.0505 315.076L67.7393 314.825L64.5348 318.792L64.8459 319.043ZM68.0949 314.95V314.903H67.6949V314.95H68.0949ZM67.8949 314.703H64.8011V315.103H67.8949V314.703ZM65.0011 314.903V313.455H64.6011V314.903H65.0011ZM64.8011 313.655H70.081V313.255H64.8011V313.655ZM69.881 313.455V314.635H70.281V313.455H69.881ZM69.9231 314.512L66.9146 318.381L67.2303 318.627L70.2389 314.758L69.9231 314.512ZM66.8724 318.504V318.551H67.2724V318.504H66.8724ZM67.0724 318.751H70.1918V318.351H67.0724V318.751ZM69.9918 318.551V320H70.3918V318.551H69.9918ZM70.1918 319.8H64.6903V320.2H70.1918V319.8ZM77.0046 311.273V311.073H76.8046V311.273H77.0046ZM78.8498 311.273H79.0498V311.073H78.8498V311.273ZM78.3938 318.611L78.2251 318.503L78.2247 318.504L78.3938 318.611ZM77.1282 319.727L77.2158 319.907L77.2165 319.907L77.1282 319.727ZM73.3313 319.727L73.243 319.907L73.2438 319.907L73.3313 319.727ZM72.0657 318.611L71.8966 318.718H71.8966L72.0657 318.611ZM71.614 311.273V311.073H71.414V311.273H71.614ZM73.4592 311.273H73.6592V311.073H73.4592V311.273ZM73.6765 317.669L73.502 317.767L73.5028 317.768L73.6765 317.669ZM74.2987 318.278L74.2018 318.453L74.2987 318.278ZM76.1651 318.278L76.0683 318.103L76.0675 318.104L76.1651 318.278ZM76.783 317.669L76.6094 317.57L76.6086 317.571L76.783 317.669ZM77.0046 311.473H78.8498V311.073H77.0046V311.473ZM78.6498 311.273V316.94H79.0498V311.273H78.6498ZM78.6498 316.94C78.6498 317.544 78.5062 318.062 78.2251 318.503L78.5625 318.718C78.8894 318.205 79.0498 317.61 79.0498 316.94H78.6498ZM78.2247 318.504C77.9447 318.948 77.5518 319.296 77.0399 319.548L77.2165 319.907C77.7898 319.625 78.2407 319.228 78.563 318.718L78.2247 318.504ZM77.0406 319.547C76.5301 319.796 75.929 319.924 75.2319 319.924V320.324C75.9779 320.324 76.641 320.187 77.2158 319.907L77.0406 319.547ZM75.2319 319.924C74.5318 319.924 73.9293 319.796 73.4189 319.547L73.2438 319.907C73.8186 320.187 74.4831 320.324 75.2319 320.324V319.924ZM73.4196 319.548C72.9077 319.296 72.5148 318.948 72.2348 318.504L71.8966 318.718C72.2188 319.228 72.6697 319.625 73.243 319.907L73.4196 319.548ZM72.2348 318.504C71.9564 318.063 71.814 317.544 71.814 316.94H71.414C71.414 317.61 71.5728 318.204 71.8966 318.718L72.2348 318.504ZM71.814 316.94V311.273H71.414V316.94H71.814ZM71.614 311.473H73.4592V311.073H71.614V311.473ZM73.2592 311.273V316.783H73.6592V311.273H73.2592ZM73.2592 316.783C73.2592 317.145 73.3384 317.475 73.502 317.767L73.851 317.571C73.7248 317.346 73.6592 317.085 73.6592 316.783H73.2592ZM73.5028 317.768C73.6692 318.059 73.9036 318.288 74.2018 318.453L74.3955 318.103C74.1596 317.973 73.9792 317.796 73.8501 317.57L73.5028 317.768ZM74.2018 318.453C74.503 318.62 74.8485 318.7 75.2319 318.7V318.3C74.9051 318.3 74.6283 318.232 74.3955 318.103L74.2018 318.453ZM75.2319 318.7C75.6178 318.7 75.9637 318.62 76.2627 318.453L76.0675 318.104C75.8382 318.232 75.5619 318.3 75.2319 318.3V318.7ZM76.2619 318.453C76.5605 318.288 76.7938 318.059 76.9575 317.767L76.6086 317.571C76.4824 317.796 76.3038 317.973 76.0683 318.103L76.2619 318.453ZM76.9567 317.768C77.1236 317.476 77.2046 317.146 77.2046 316.783H76.8046C76.8046 317.084 76.7379 317.345 76.6094 317.57L76.9567 317.768ZM77.2046 316.783V311.273H76.8046V316.783H77.2046ZM85.1023 313.783L84.9032 313.802L84.9211 313.983H85.1023V313.783ZM82.848 312.824L82.9219 313.01L82.924 313.009L82.848 312.824ZM82.3707 313.169L82.2107 313.049L82.2093 313.051L82.3707 313.169ZM82.2088 313.672L82.4088 313.679V313.672H82.2088ZM82.3068 314.081L82.136 314.185L82.1379 314.188L82.3068 314.081ZM82.6094 314.384L82.4984 314.55L82.501 314.552L82.6094 314.384ZM83.0526 314.601L82.9827 314.788L82.9855 314.789L83.0526 314.601ZM83.5895 314.754L83.636 314.56L83.6332 314.559L83.5895 314.754ZM84.3736 314.942L84.3271 315.136L84.3299 315.137L84.3736 314.942ZM85.4219 315.283L85.3403 315.465L85.4219 315.283ZM86.2486 315.807L86.3816 315.657V315.657L86.2486 315.807ZM86.7898 316.54L86.6077 316.623L86.6084 316.624L86.7898 316.54ZM86.9901 317.507L87.1901 317.508L87.1901 317.506L86.9901 317.507ZM86.581 318.896L86.4162 318.783L86.4161 318.783L86.581 318.896ZM85.4219 319.804L85.4999 319.988L85.5004 319.988L85.4219 319.804ZM81.7614 319.8L81.6847 319.984L81.685 319.985L81.7614 319.8ZM80.5426 318.841L80.3772 318.953L80.3781 318.955L80.5426 318.841ZM80.0866 317.26V317.06H79.8821L79.8867 317.264L80.0866 317.26ZM81.8722 317.26L82.0717 317.246L82.059 317.06H81.8722V317.26ZM82.1236 317.993L81.9638 318.113L81.9658 318.116L82.1236 317.993ZM82.7244 318.432L82.6505 318.618L82.6531 318.619L82.7244 318.432ZM84.3949 318.44L84.3222 318.254L84.3214 318.254L84.3949 318.44ZM84.9361 318.061L85.0931 318.185L84.9361 318.061ZM84.9531 317.009L84.8008 317.138L84.8024 317.14L84.9531 317.009ZM84.4503 316.668L84.3715 316.851L84.3724 316.852L84.4503 316.668ZM83.6449 316.412L83.5962 316.606L83.598 316.606L83.6449 316.412ZM82.6946 316.173L82.7433 315.979L82.7419 315.979L82.6946 316.173ZM80.9517 315.334L80.8185 315.483L80.9517 315.334ZM80.3168 313.795L80.5168 313.796L80.5168 313.794L80.3168 313.795ZM80.7386 312.411L80.5768 312.293L80.5763 312.294L80.7386 312.411ZM85.3196 311.486L85.2362 311.668L85.2366 311.668L85.3196 311.486ZM86.4531 312.411L86.288 312.523L86.4531 312.411ZM86.8707 313.783V313.983H87.074L87.0707 313.779L86.8707 313.783ZM85.3013 313.763C85.2621 313.368 85.0898 313.047 84.7819 312.82L84.5448 313.143C84.7539 313.297 84.8743 313.51 84.9032 313.802L85.3013 313.763ZM84.7819 312.82C84.4781 312.597 84.0808 312.496 83.6108 312.496V312.896C84.0272 312.896 84.3315 312.986 84.5448 313.143L84.7819 312.82ZM83.6108 312.496C83.292 312.496 83.0102 312.541 82.772 312.639L82.924 313.009C83.1006 312.936 83.3273 312.896 83.6108 312.896V312.496ZM82.7742 312.638C82.5397 312.731 82.3478 312.866 82.2107 313.049L82.5307 313.289C82.6152 313.176 82.7415 313.081 82.9219 313.01L82.7742 312.638ZM82.2093 313.051C82.0756 313.234 82.0088 313.443 82.0088 313.672H82.4088C82.4088 313.526 82.45 313.4 82.5322 313.287L82.2093 313.051ZM82.0089 313.665C82.002 313.854 82.0418 314.03 82.1361 314.185L82.4776 313.977C82.4298 313.899 82.4042 313.802 82.4087 313.679L82.0089 313.665ZM82.1379 314.188C82.2284 314.331 82.35 314.451 82.4984 314.55L82.7203 314.217C82.6131 314.146 82.533 314.064 82.4757 313.974L82.1379 314.188ZM82.501 314.552C82.6429 314.643 82.8039 314.722 82.9827 314.788L83.1224 314.413C82.966 314.355 82.8316 314.289 82.7177 314.215L82.501 314.552ZM82.9855 314.789C83.1614 314.852 83.3483 314.905 83.5458 314.949L83.6332 314.559C83.45 314.518 83.2789 314.469 83.1196 314.412L82.9855 314.789ZM83.543 314.949L84.3271 315.136L84.4201 314.747L83.636 314.56L83.543 314.949ZM84.3299 315.137C84.6991 315.22 85.0357 315.329 85.3403 315.465L85.5034 315.1C85.1717 314.952 84.8094 314.834 84.4173 314.747L84.3299 315.137ZM85.3403 315.465C85.6419 315.6 85.8997 315.764 86.1156 315.956L86.3816 315.657C86.1316 315.435 85.8382 315.249 85.5034 315.1L85.3403 315.465ZM86.1156 315.956C86.3279 316.145 86.4915 316.367 86.6077 316.623L86.9718 316.457C86.8324 316.15 86.6351 315.883 86.3816 315.657L86.1156 315.956ZM86.6084 316.624C86.7251 316.875 86.7874 317.169 86.7901 317.509L87.1901 317.506C87.187 317.118 87.1158 316.767 86.9711 316.455L86.6084 316.624ZM86.7901 317.506C86.7874 318.005 86.6606 318.428 86.4162 318.783L86.7457 319.01C87.0411 318.581 87.187 318.077 87.1901 317.508L86.7901 317.506ZM86.4161 318.783C86.1738 319.136 85.82 319.417 85.3433 319.62L85.5004 319.988C86.0352 319.76 86.454 319.435 86.7459 319.009L86.4161 318.783ZM85.3438 319.62C84.8719 319.82 84.2934 319.924 83.6023 319.924V320.324C84.3316 320.324 84.9662 320.214 85.4999 319.988L85.3438 319.62ZM83.6023 319.924C82.9177 319.924 82.3311 319.819 81.8377 319.615L81.685 319.985C82.2371 320.213 82.8778 320.324 83.6023 320.324V319.924ZM81.8381 319.615C81.3502 319.412 80.9759 319.116 80.7071 318.727L80.3781 318.955C80.6946 319.412 81.1328 319.755 81.6847 319.984L81.8381 319.615ZM80.708 318.728C80.4442 318.341 80.3001 317.853 80.2866 317.255L79.8867 317.264C79.9016 317.922 80.0614 318.489 80.3772 318.953L80.708 318.728ZM80.0866 317.46H81.8722V317.06H80.0866V317.46ZM81.6726 317.274C81.6946 317.597 81.7886 317.881 81.9639 318.113L82.2833 317.873C82.1631 317.713 82.0895 317.508 82.0717 317.246L81.6726 317.274ZM81.9658 318.116C82.1404 318.34 82.3708 318.506 82.6505 318.618L82.7983 318.246C82.578 318.158 82.4079 318.032 82.2813 317.87L81.9658 318.116ZM82.6531 318.619C82.9323 318.725 83.2426 318.777 83.581 318.777V318.377C83.283 318.377 83.0222 318.331 82.7958 318.245L82.6531 318.619ZM83.581 318.777C83.9123 318.777 84.2096 318.729 84.4684 318.626L84.3214 318.254C84.1199 318.334 83.8747 318.377 83.581 318.377V318.777ZM84.4676 318.627C84.7267 318.526 84.9389 318.38 85.0931 318.185L84.7791 317.937C84.6775 318.066 84.529 318.173 84.3222 318.254L84.4676 318.627ZM85.0931 318.185C85.2493 317.987 85.3278 317.757 85.3278 317.503H84.9278C84.9278 317.669 84.8785 317.811 84.7791 317.937L85.0931 318.185ZM85.3278 317.503C85.3278 317.264 85.2555 317.051 85.1038 316.877L84.8024 317.14C84.8837 317.233 84.9278 317.35 84.9278 317.503H85.3278ZM85.1054 316.879C84.9655 316.714 84.7684 316.585 84.5282 316.483L84.3724 316.852C84.5754 316.938 84.7135 317.036 84.8008 317.138L85.1054 316.879ZM84.5291 316.484C84.297 316.384 84.0171 316.296 83.6918 316.218L83.598 316.606C83.909 316.681 84.1661 316.763 84.3715 316.851L84.5291 316.484ZM83.6936 316.218L82.7433 315.979L82.6459 316.367L83.5962 316.606L83.6936 316.218ZM82.7419 315.979C82.028 315.805 81.4799 315.537 81.0849 315.185L80.8185 315.483C81.2758 315.891 81.8896 316.183 82.6473 316.368L82.7419 315.979ZM81.0849 315.185C80.7073 314.847 80.5141 314.392 80.5168 313.796L80.1168 313.795C80.1137 314.489 80.3439 315.059 80.8185 315.483L81.0849 315.185ZM80.5168 313.794C80.5141 313.304 80.6437 312.885 80.901 312.527L80.5763 312.294C80.2653 312.726 80.1137 313.23 80.1168 313.797L80.5168 313.794ZM80.9004 312.528C81.1643 312.165 81.5283 311.878 82.0001 311.669L81.838 311.303C81.3098 311.537 80.8869 311.866 80.5768 312.293L80.9004 312.528ZM82.0001 311.669C82.4707 311.46 83.0106 311.353 83.6236 311.353V310.953C82.9638 310.953 82.3674 311.068 81.838 311.303L82.0001 311.669ZM83.6236 311.353C84.2487 311.353 84.7845 311.46 85.2362 311.668L85.403 311.304C84.8888 311.068 84.2939 310.953 83.6236 310.953V311.353ZM85.2366 311.668C85.6932 311.876 86.041 312.162 86.288 312.523L86.6182 312.298C86.3255 311.869 85.9176 311.539 85.4026 311.304L85.2366 311.668ZM86.288 312.523C86.5339 312.883 86.6628 313.302 86.6708 313.786L87.0707 313.779C87.0616 313.224 86.9121 312.728 86.6182 312.298L86.288 312.523ZM86.8707 313.583H85.1023V313.983H86.8707V313.583ZM88.2312 320H88.0312V320.2H88.2312V320ZM88.2312 311.273V311.073H88.0312V311.273H88.2312ZM93.6175 311.797L93.5209 311.972L93.5216 311.972L93.6175 311.797ZM95.0792 313.293L94.902 313.385L94.9024 313.386L95.0792 313.293ZM95.0792 317.972L94.9022 317.878L94.9019 317.879L95.0792 317.972ZM93.609 319.476L93.5131 319.3L93.5128 319.301L93.609 319.476ZM90.0763 318.419H89.8764V318.619H90.0763V318.419ZM92.6246 318.129L92.7168 318.307L92.7173 318.307L92.6246 318.129ZM93.4684 317.222L93.2868 317.138L93.2866 317.138L93.4684 317.222ZM93.4684 314.047L93.2866 314.13L93.2871 314.131L93.4684 314.047ZM92.6289 313.143L92.721 312.966L92.6289 313.143ZM90.0763 312.854V312.654H89.8764V312.854H90.0763ZM91.3249 319.8H88.2312V320.2H91.3249V319.8ZM88.4312 320V311.273H88.0312V320H88.4312ZM88.2312 311.473H91.3505V311.073H88.2312V311.473ZM91.3505 311.473C92.2017 311.473 92.9227 311.642 93.5209 311.972L93.7141 311.622C93.0453 311.253 92.255 311.073 91.3505 311.073V311.473ZM93.5216 311.972C94.1198 312.3 94.5791 312.769 94.902 313.385L95.2563 313.2C94.8975 312.515 94.3823 311.987 93.7135 311.621L93.5216 311.972ZM94.9024 313.386C95.2278 314.002 95.3948 314.747 95.3948 315.628H95.7948C95.7948 314.696 95.6181 313.884 95.256 313.199L94.9024 313.386ZM95.3948 315.628C95.3948 316.512 95.2277 317.26 94.9022 317.878L95.2562 318.065C95.6182 317.377 95.7948 316.562 95.7948 315.628H95.3948ZM94.9019 317.879C94.5791 318.498 94.1171 318.97 93.5131 319.3L93.705 319.651C94.3793 319.283 94.8975 318.752 95.2565 318.064L94.9019 317.879ZM93.5128 319.301C92.9117 319.631 92.185 319.8 91.3249 319.8V320.2C92.2376 320.2 93.0336 320.02 93.7053 319.651L93.5128 319.301ZM90.0763 318.619H91.2482V318.219H90.0763V318.619ZM91.2482 318.619C91.8164 318.619 92.3089 318.518 92.7168 318.307L92.5325 317.952C92.1961 318.126 91.7709 318.219 91.2482 318.219V318.619ZM92.7173 318.307C93.1342 318.089 93.4455 317.752 93.6502 317.305L93.2866 317.138C93.1163 317.51 92.8651 317.778 92.532 317.952L92.7173 318.307ZM93.65 317.305C93.8565 316.858 93.9539 316.296 93.9539 315.628H93.5539C93.5539 316.261 93.4609 316.761 93.2868 317.138L93.65 317.305ZM93.9539 315.628C93.9539 314.965 93.8565 314.407 93.6497 313.963L93.2871 314.131C93.461 314.505 93.5539 315 93.5539 315.628H93.9539ZM93.6502 313.964C93.4456 313.517 93.1357 313.181 92.721 312.966L92.5368 313.321C92.8664 313.492 93.1162 313.758 93.2866 314.13L93.6502 313.964ZM92.721 312.966C92.3132 312.754 91.8207 312.654 91.2525 312.654V313.054C91.7752 313.054 92.2003 313.146 92.5368 313.321L92.721 312.966ZM91.2525 312.654H90.0763V313.054H91.2525V312.654ZM89.8764 312.854V318.419H90.2764V312.854H89.8764Z" fill="white" fill-opacity="0.39" mask="url(#path-3-outside-1_438_269)"/>
<g filter="url(#filter1_d_438_269)">
<circle cx="553.066" cy="316.066" r="22.0664" fill="url(#paint1_linear_438_269)"/>
<circle cx="553.066" cy="316.066" r="21.5664" stroke="black"/>
</g>
<mask id="path-7-outside-2_438_269" maskUnits="userSpaceOnUse" x="533" y="311" width="35" height="10" fill="black">
<rect fill="white" x="533" y="311" width="35" height="10"/>
<path d="M533.724 320V313.455H535.455V314.609H535.531C535.668 314.226 535.895 313.923 536.213 313.702C536.531 313.48 536.912 313.369 537.355 313.369C537.804 313.369 538.186 313.482 538.501 313.706C538.817 313.928 539.027 314.229 539.132 314.609H539.2C539.334 314.234 539.575 313.935 539.925 313.71C540.277 313.483 540.693 313.369 541.173 313.369C541.784 313.369 542.28 313.564 542.661 313.953C543.044 314.339 543.236 314.888 543.236 315.598V320H541.425V315.956C541.425 315.592 541.328 315.32 541.135 315.138C540.942 314.956 540.7 314.865 540.411 314.865C540.081 314.865 539.824 314.97 539.639 315.18C539.455 315.388 539.362 315.662 539.362 316.003V320H537.602V315.918C537.602 315.597 537.51 315.341 537.325 315.151C537.143 314.96 536.903 314.865 536.605 314.865C536.403 314.865 536.222 314.916 536.06 315.018C535.901 315.118 535.774 315.259 535.68 315.44C535.587 315.619 535.54 315.83 535.54 316.071V320H533.724ZM544.704 320V311.273H550.585V312.794H546.549V314.874H550.282V316.395H546.549V318.479H550.602V320H544.704ZM551.719 312.794V311.273H558.887V312.794H556.215V320H554.391V312.794H551.719ZM560.067 320V311.273H561.912V314.874H565.658V311.273H567.499V320H565.658V316.395H561.912V320H560.067Z"/>
</mask>
<path d="M533.724 320V313.455H535.455V314.609H535.531C535.668 314.226 535.895 313.923 536.213 313.702C536.531 313.48 536.912 313.369 537.355 313.369C537.804 313.369 538.186 313.482 538.501 313.706C538.817 313.928 539.027 314.229 539.132 314.609H539.2C539.334 314.234 539.575 313.935 539.925 313.71C540.277 313.483 540.693 313.369 541.173 313.369C541.784 313.369 542.28 313.564 542.661 313.953C543.044 314.339 543.236 314.888 543.236 315.598V320H541.425V315.956C541.425 315.592 541.328 315.32 541.135 315.138C540.942 314.956 540.7 314.865 540.411 314.865C540.081 314.865 539.824 314.97 539.639 315.18C539.455 315.388 539.362 315.662 539.362 316.003V320H537.602V315.918C537.602 315.597 537.51 315.341 537.325 315.151C537.143 314.96 536.903 314.865 536.605 314.865C536.403 314.865 536.222 314.916 536.06 315.018C535.901 315.118 535.774 315.259 535.68 315.44C535.587 315.619 535.54 315.83 535.54 316.071V320H533.724ZM544.704 320V311.273H550.585V312.794H546.549V314.874H550.282V316.395H546.549V318.479H550.602V320H544.704ZM551.719 312.794V311.273H558.887V312.794H556.215V320H554.391V312.794H551.719ZM560.067 320V311.273H561.912V314.874H565.658V311.273H567.499V320H565.658V316.395H561.912V320H560.067Z" fill="black"/>
<path d="M533.724 320H533.524V320.2H533.724V320ZM533.724 313.455V313.255H533.524V313.455H533.724ZM535.455 313.455H535.655V313.255H535.455V313.455ZM535.455 314.609H535.255V314.809H535.455V314.609ZM535.531 314.609V314.809H535.672L535.72 314.676L535.531 314.609ZM536.213 313.702L536.099 313.538H536.099L536.213 313.702ZM538.501 313.706L538.385 313.869L538.386 313.87L538.501 313.706ZM539.132 314.609L538.939 314.663L538.98 314.809H539.132V314.609ZM539.2 314.609V314.809H539.341L539.389 314.676L539.2 314.609ZM539.925 313.71L540.033 313.879L540.033 313.878L539.925 313.71ZM542.661 313.953L542.518 314.093L542.519 314.094L542.661 313.953ZM543.236 320V320.2H543.436V320H543.236ZM541.425 320H541.225V320.2H541.425V320ZM541.135 315.138L540.998 315.283L540.998 315.283L541.135 315.138ZM539.639 315.18L539.789 315.313L539.789 315.312L539.639 315.18ZM539.362 320V320.2H539.562V320H539.362ZM537.602 320H537.402V320.2H537.602V320ZM537.325 315.151L537.181 315.289L537.182 315.29L537.325 315.151ZM536.06 315.018L536.166 315.188L536.166 315.188L536.06 315.018ZM535.68 315.44L535.858 315.533L535.858 315.532L535.68 315.44ZM535.54 320V320.2H535.74V320H535.54ZM533.924 320V313.455H533.524V320H533.924ZM533.724 313.655H535.455V313.255H533.724V313.655ZM535.255 313.455V314.609H535.655V313.455H535.255ZM535.455 314.809H535.531V314.409H535.455V314.809ZM535.72 314.676C535.843 314.33 536.045 314.062 536.327 313.866L536.099 313.538C535.745 313.784 535.492 314.122 535.343 314.542L535.72 314.676ZM536.327 313.866C536.607 313.671 536.947 313.569 537.355 313.569V313.169C536.877 313.169 536.455 313.289 536.099 313.538L536.327 313.866ZM537.355 313.569C537.769 313.569 538.109 313.672 538.385 313.869L538.617 313.543C538.263 313.291 537.839 313.169 537.355 313.169V313.569ZM538.386 313.87C538.663 314.064 538.846 314.325 538.939 314.663L539.325 314.556C539.208 314.132 538.971 313.791 538.616 313.542L538.386 313.87ZM539.132 314.809H539.2V314.409H539.132V314.809ZM539.389 314.676C539.507 314.345 539.719 314.08 540.033 313.879L539.817 313.542C539.432 313.789 539.161 314.124 539.012 314.542L539.389 314.676ZM540.033 313.878C540.349 313.675 540.726 313.569 541.173 313.569V313.169C540.66 313.169 540.205 313.291 539.816 313.542L540.033 313.878ZM541.173 313.569C541.737 313.569 542.179 313.747 542.518 314.093L542.803 313.813C542.38 313.381 541.831 313.169 541.173 313.169V313.569ZM542.519 314.094C542.855 314.433 543.036 314.924 543.036 315.598H543.436C543.436 314.852 543.233 314.246 542.802 313.812L542.519 314.094ZM543.036 315.598V320H543.436V315.598H543.036ZM543.236 319.8H541.425V320.2H543.236V319.8ZM541.625 320V315.956H541.225V320H541.625ZM541.625 315.956C541.625 315.558 541.519 315.224 541.272 314.992L540.998 315.283C541.138 315.415 541.225 315.626 541.225 315.956H541.625ZM541.272 314.992C541.038 314.772 540.746 314.665 540.411 314.665V315.065C540.654 315.065 540.845 315.14 540.998 315.283L541.272 314.992ZM540.411 314.665C540.035 314.665 539.718 314.787 539.489 315.048L539.789 315.312C539.929 315.153 540.127 315.065 540.411 315.065V314.665ZM539.49 315.047C539.266 315.299 539.162 315.625 539.162 316.003H539.562C539.562 315.699 539.644 315.476 539.789 315.313L539.49 315.047ZM539.162 316.003V320H539.562V316.003H539.162ZM539.362 319.8H537.602V320.2H539.362V319.8ZM537.802 320V315.918H537.402V320H537.802ZM537.802 315.918C537.802 315.556 537.697 315.247 537.469 315.011L537.182 315.29C537.323 315.435 537.402 315.637 537.402 315.918H537.802ZM537.47 315.012C537.245 314.777 536.95 314.665 536.605 314.665V315.065C536.857 315.065 537.042 315.143 537.181 315.289L537.47 315.012ZM536.605 314.665C536.368 314.665 536.148 314.726 535.953 314.849L536.166 315.188C536.295 315.107 536.439 315.065 536.605 315.065V314.665ZM535.954 314.849C535.761 314.969 535.611 315.138 535.503 315.349L535.858 315.532C535.937 315.379 536.04 315.267 536.166 315.188L535.954 314.849ZM535.503 315.348C535.392 315.56 535.34 315.803 535.34 316.071H535.74C535.74 315.856 535.781 315.678 535.858 315.533L535.503 315.348ZM535.34 316.071V320H535.74V316.071H535.34ZM535.54 319.8H533.724V320.2H535.54V319.8ZM544.704 320H544.504V320.2H544.704V320ZM544.704 311.273V311.073H544.504V311.273H544.704ZM550.585 311.273H550.785V311.073H550.585V311.273ZM550.585 312.794V312.994H550.785V312.794H550.585ZM546.549 312.794V312.594H546.349V312.794H546.549ZM546.549 314.874H546.349V315.074H546.549V314.874ZM550.282 314.874H550.482V314.674H550.282V314.874ZM550.282 316.395V316.595H550.482V316.395H550.282ZM546.549 316.395V316.195H546.349V316.395H546.549ZM546.549 318.479H546.349V318.679H546.549V318.479ZM550.602 318.479H550.802V318.279H550.602V318.479ZM550.602 320V320.2H550.802V320H550.602ZM544.904 320V311.273H544.504V320H544.904ZM544.704 311.473H550.585V311.073H544.704V311.473ZM550.385 311.273V312.794H550.785V311.273H550.385ZM550.585 312.594H546.549V312.994H550.585V312.594ZM546.349 312.794V314.874H546.749V312.794H546.349ZM546.549 315.074H550.282V314.674H546.549V315.074ZM550.082 314.874V316.395H550.482V314.874H550.082ZM550.282 316.195H546.549V316.595H550.282V316.195ZM546.349 316.395V318.479H546.749V316.395H546.349ZM546.549 318.679H550.602V318.279H546.549V318.679ZM550.402 318.479V320H550.802V318.479H550.402ZM550.602 319.8H544.704V320.2H550.602V319.8ZM551.719 312.794H551.519V312.994H551.719V312.794ZM551.719 311.273V311.073H551.519V311.273H551.719ZM558.887 311.273H559.087V311.073H558.887V311.273ZM558.887 312.794V312.994H559.087V312.794H558.887ZM556.215 312.794V312.594H556.015V312.794H556.215ZM556.215 320V320.2H556.415V320H556.215ZM554.391 320H554.191V320.2H554.391V320ZM554.391 312.794H554.591V312.594H554.391V312.794ZM551.919 312.794V311.273H551.519V312.794H551.919ZM551.719 311.473H558.887V311.073H551.719V311.473ZM558.687 311.273V312.794H559.087V311.273H558.687ZM558.887 312.594H556.215V312.994H558.887V312.594ZM556.015 312.794V320H556.415V312.794H556.015ZM556.215 319.8H554.391V320.2H556.215V319.8ZM554.591 320V312.794H554.191V320H554.591ZM554.391 312.594H551.719V312.994H554.391V312.594ZM560.067 320H559.867V320.2H560.067V320ZM560.067 311.273V311.073H559.867V311.273H560.067ZM561.912 311.273H562.112V311.073H561.912V311.273ZM561.912 314.874H561.712V315.074H561.912V314.874ZM565.658 314.874V315.074H565.858V314.874H565.658ZM565.658 311.273V311.073H565.458V311.273H565.658ZM567.499 311.273H567.699V311.073H567.499V311.273ZM567.499 320V320.2H567.699V320H567.499ZM565.658 320H565.458V320.2H565.658V320ZM565.658 316.395H565.858V316.195H565.658V316.395ZM561.912 316.395V316.195H561.712V316.395H561.912ZM561.912 320V320.2H562.112V320H561.912ZM560.267 320V311.273H559.867V320H560.267ZM560.067 311.473H561.912V311.073H560.067V311.473ZM561.712 311.273V314.874H562.112V311.273H561.712ZM561.912 315.074H565.658V314.674H561.912V315.074ZM565.858 314.874V311.273H565.458V314.874H565.858ZM565.658 311.473H567.499V311.073H565.658V311.473ZM567.299 311.273V320H567.699V311.273H567.299ZM567.499 319.8H565.658V320.2H567.499V319.8ZM565.858 320V316.395H565.458V320H565.858ZM565.658 316.195H561.912V316.595H565.658V316.195ZM561.712 316.395V320H562.112V316.395H561.712ZM561.912 319.8H560.067V320.2H561.912V319.8Z" fill="white" fill-opacity="0.39" mask="url(#path-7-outside-2_438_269)"/>
<g filter="url(#filter2_di_438_269)">
<path d="M345 90C474.2 90 586 73 615 43.5C609 46.3 587.667 44.6667 578 43.5C530 92 427.514 72.8346 368.5 68.6907C359.869 68.0846 354.433 78.4891 347.5 78L345 90Z" fill="#D9D9D9"/>
<path d="M345 90C474.2 90 586 73 615 43.5C609 46.3 587.667 44.6667 578 43.5C530 92 427.514 72.8346 368.5 68.6907C359.869 68.0846 354.433 78.4891 347.5 78L345 90Z" stroke="black"/>
</g>
<g filter="url(#filter3_di_438_269)">
<path d="M288 90C158.8 90 47 73 18 43.5C24 46.3 45.3333 44.6667 55 43.5C103 92 205.486 72.8346 264.5 68.6907C273.131 68.0846 278.567 78.4891 285.5 78L288 90Z" fill="#D9D9D9"/>
<path d="M288 90C158.8 90 47 73 18 43.5C24 46.3 45.3333 44.6667 55 43.5C103 92 205.486 72.8346 264.5 68.6907C273.131 68.0846 278.567 78.4891 285.5 78L288 90Z" stroke="black"/>
</g>
<path d="M69 376L78.575 393.782C78.9614 394.5 79.9976 394.479 80.3545 393.746L89 376H69Z" fill="url(#paint2_linear_438_269)" stroke="black"/>
<path d="M543 376L552.575 393.782C552.961 394.5 553.998 394.479 554.354 393.746L563 376H543Z" fill="url(#paint3_linear_438_269)" stroke="black"/>
<g filter="url(#filter4_d_438_269)">
<rect x="62" y="370" width="33" height="8" rx="4" fill="url(#paint4_linear_438_269)"/>
<rect x="62.5" y="370.5" width="32" height="7" rx="3.5" stroke="black"/>
</g>
<g filter="url(#filter5_d_438_269)">
<rect x="536" y="370" width="33" height="8" rx="4" fill="url(#paint5_linear_438_269)"/>
<rect x="536.5" y="370.5" width="32" height="7" rx="3.5" stroke="black"/>
</g>
<g filter="url(#filter6_d_438_269)">
<path d="M78.5 374C117.988 374 150 356.539 150 335H7C7 356.539 39.0116 374 78.5 374Z" fill="url(#paint6_radial_438_269)"/>
<path d="M149.494 335.5C149.25 345.806 141.485 355.229 128.819 362.138C115.966 369.149 98.177 373.5 78.5 373.5C58.823 373.5 41.0336 369.149 28.1813 362.138C15.5147 355.229 7.74953 345.806 7.50591 335.5H149.494Z" stroke="black"/>
</g>
<g filter="url(#filter7_d_438_269)">
<path d="M552.5 374C591.988 374 624 356.539 624 335H481C481 356.539 513.012 374 552.5 374Z" fill="url(#paint7_radial_438_269)"/>
<path d="M623.494 335.5C623.25 345.806 615.485 355.229 602.819 362.138C589.966 369.149 572.177 373.5 552.5 373.5C532.823 373.5 515.034 369.149 502.181 362.138C489.515 355.229 481.75 345.806 481.506 335.5H623.494Z" stroke="black"/>
</g>
<g filter="url(#filter8_d_438_269)">
<rect x="4" y="331" width="149" height="7" rx="3.5" fill="#D9D9D9"/>
<rect x="4.5" y="331.5" width="148" height="6" rx="3" stroke="black"/>
</g>
<g filter="url(#filter9_d_438_269)">
<rect x="478" y="331" width="149" height="7" rx="3.5" fill="#D9D9D9"/>
<rect x="478.5" y="331.5" width="148" height="6" rx="3" stroke="black"/>
</g>
<g filter="url(#filter10_d_438_269)">
<path fill-rule="evenodd" clip-rule="evenodd" d="M291 367V358.5C297.833 352.333 311.5 309.2 311.5 186C311.5 176 310.4 161.3 284 150.5C293.167 150.333 311.5 139.6 311.5 98V47H313H316.5H318V98C318 139.6 336.333 150.333 345.5 150.5C319.1 161.3 318 176 318 186C318 309.2 331.667 352.333 338.5 358.5V367H316.5H313H291Z" fill="url(#paint8_linear_438_269)"/>
<path d="M291 358.5L290.665 358.129L290.5 358.278V358.5H291ZM291 367H290.5V367.5H291V367ZM284 150.5L283.991 150L283.811 150.963L284 150.5ZM311.5 47V46.5H311V47H311.5ZM318 47H318.5V46.5H318V47ZM345.5 150.5L345.689 150.963L345.509 150L345.5 150.5ZM338.5 358.5H339V358.278L338.835 358.129L338.5 358.5ZM338.5 367V367.5H339V367H338.5ZM290.5 358.5V367H291.5V358.5H290.5ZM311 186C311 247.584 307.584 289.139 303.319 316.059C301.186 329.52 298.842 339.312 296.611 346.115C295.495 349.516 294.41 352.162 293.398 354.143C292.381 356.131 291.453 357.418 290.665 358.129L291.335 358.871C292.255 358.041 293.249 356.63 294.288 354.598C295.331 352.558 296.435 349.861 297.561 346.426C299.814 339.557 302.168 329.709 304.306 316.216C308.583 289.227 312 247.616 312 186H311ZM283.811 150.963C296.939 156.333 303.711 162.646 307.216 168.798C310.723 174.954 311 181.018 311 186H312C312 180.982 311.727 174.696 308.084 168.302C304.439 161.904 297.461 155.467 284.189 150.037L283.811 150.963ZM311 98C311 139.477 292.757 149.841 283.991 150L284.009 151C293.577 150.826 312 139.723 312 98H311ZM311 47V98H312V47H311ZM313 46.5H311.5V47.5H313V46.5ZM313 47.5H316.5V46.5H313V47.5ZM316.5 47.5H318V46.5H316.5V47.5ZM317.5 47V98H318.5V47H317.5ZM317.5 98C317.5 139.723 335.923 150.826 345.491 151L345.509 150C336.743 149.841 318.5 139.477 318.5 98H317.5ZM345.311 150.037C332.039 155.467 325.061 161.904 321.416 168.302C317.773 174.696 317.5 180.982 317.5 186H318.5C318.5 181.018 318.777 174.954 322.284 168.798C325.789 162.646 332.561 156.333 345.689 150.963L345.311 150.037ZM317.5 186C317.5 247.616 320.917 289.227 325.194 316.216C327.332 329.709 329.686 339.557 331.939 346.426C333.065 349.861 334.169 352.558 335.212 354.598C336.251 356.63 337.245 358.041 338.165 358.871L338.835 358.129C338.047 357.418 337.119 356.131 336.102 354.143C335.09 352.162 334.005 349.516 332.889 346.115C330.658 339.312 328.314 329.52 326.181 316.059C321.916 289.139 318.5 247.584 318.5 186H317.5ZM338 358.5V367H339V358.5H338ZM338.5 366.5H316.5V367.5H338.5V366.5ZM316.5 366.5H313V367.5H316.5V366.5ZM291 367.5H313V366.5H291V367.5Z" fill="black"/>
</g>
<path d="M397.499 436.5H233.501C233.771 391.443 270.379 355 315.5 355C360.621 355 397.229 391.443 397.499 436.5Z" fill="url(#paint9_radial_438_269)" stroke="black"/>
<rect x="222.5" y="412.5" width="185" height="18" rx="9" fill="#D9D9D9" stroke="black"/>
<g filter="url(#filter11_d_438_269)">
<rect x="190" y="426" width="250" height="27" rx="13.5" fill="#D9D9D9"/>
<rect x="190.5" y="426.5" width="249" height="26" rx="13" stroke="black"/>
</g>
<g filter="url(#filter12_d_438_269)">
<mask id="path-31-inside-3_438_269" fill="white">
<path fill-rule="evenodd" clip-rule="evenodd" d="M396.685 0.250004C389.732 38.7754 356.029 68 315.5 68C274.971 68 241.268 38.7754 234.315 0.25C233.451 5.03587 233 9.96527 233 15C233 60.5635 269.937 97.5 315.5 97.5C361.063 97.5 398 60.5635 398 15C398 9.96526 397.549 5.03587 396.685 0.250004Z"/>
</mask>
<path fill-rule="evenodd" clip-rule="evenodd" d="M396.685 0.250004C389.732 38.7754 356.029 68 315.5 68C274.971 68 241.268 38.7754 234.315 0.25C233.451 5.03587 233 9.96527 233 15C233 60.5635 269.937 97.5 315.5 97.5C361.063 97.5 398 60.5635 398 15C398 9.96526 397.549 5.03587 396.685 0.250004Z" fill="url(#paint10_linear_438_269)"/>
<path d="M396.685 0.250004L397.669 0.0723845L395.701 0.072384L396.685 0.250004ZM234.315 0.25L235.299 0.0723799H233.331L234.315 0.25ZM395.701 0.072384C388.832 38.1302 355.536 67 315.5 67V69C356.521 69 390.631 39.4207 397.669 0.427625L395.701 0.072384ZM315.5 67C275.464 67 242.168 38.1302 235.299 0.0723799L233.331 0.42762C240.369 39.4207 274.479 69 315.5 69V67ZM234 15C234 10.0251 234.446 5.15514 235.299 0.42762L233.331 0.0723799C232.456 4.91659 232 9.90543 232 15H234ZM315.5 96.5C270.489 96.5 234 60.0112 234 15H232C232 61.1158 269.384 98.5 315.5 98.5V96.5ZM397 15C397 60.0112 360.511 96.5 315.5 96.5V98.5C361.616 98.5 399 61.1158 399 15H397ZM395.701 0.427624C396.554 5.15515 397 10.0251 397 15H399C399 9.90543 398.544 4.9166 397.669 0.0723845L395.701 0.427624Z" fill="black" mask="url(#path-31-inside-3_438_269)"/>
</g>
<g filter="url(#filter13_d_438_269)">
<ellipse cx="314.5" cy="41.2461" rx="11.5" ry="11" fill="url(#paint11_linear_438_269)"/>
<path d="M325.5 41.2461C325.5 47.0244 320.596 51.7461 314.5 51.7461C308.404 51.7461 303.5 47.0244 303.5 41.2461C303.5 35.4678 308.404 30.7461 314.5 30.7461C320.596 30.7461 325.5 35.4678 325.5 41.2461Z" stroke="black"/>
</g>
<g filter="url(#filter14_d_438_269)">
<mask id="path-35-inside-4_438_269" fill="white">
<path fill-rule="evenodd" clip-rule="evenodd" d="M340.084 10C337.038 21.2742 326.738 29.5692 314.5 29.5692C302.262 29.5692 291.962 21.2742 288.916 10C288.319 12.2092 288 14.5328 288 16.9308C288 31.5663 299.864 43.4308 314.5 43.4308C329.136 43.4308 341 31.5663 341 16.9308C341 14.5328 340.681 12.2092 340.084 10Z"/>
</mask>
<path fill-rule="evenodd" clip-rule="evenodd" d="M340.084 10C337.038 21.2742 326.738 29.5692 314.5 29.5692C302.262 29.5692 291.962 21.2742 288.916 10C288.319 12.2092 288 14.5328 288 16.9308C288 31.5663 299.864 43.4308 314.5 43.4308C329.136 43.4308 341 31.5663 341 16.9308C341 14.5328 340.681 12.2092 340.084 10Z" fill="url(#paint12_linear_438_269)"/>
<path d="M340.084 10L341.05 9.73912L340.084 6.16688L339.119 9.73912L340.084 10ZM288.916 10L289.881 9.73912L288.916 6.16688L287.95 9.73912L288.916 10ZM339.119 9.73912C336.187 20.5882 326.274 28.5692 314.5 28.5692V30.5692C327.201 30.5692 337.888 21.9601 341.05 10.2609L339.119 9.73912ZM314.5 28.5692C302.726 28.5692 292.813 20.5882 289.881 9.73912L287.95 10.2609C291.112 21.9601 301.799 30.5692 314.5 30.5692V28.5692ZM289 16.9308C289 14.6217 289.307 12.3858 289.881 10.2609L287.95 9.73912C287.33 12.0326 287 14.4439 287 16.9308H289ZM314.5 42.4308C300.417 42.4308 289 31.014 289 16.9308H287C287 32.1186 299.312 44.4308 314.5 44.4308V42.4308ZM340 16.9308C340 31.014 328.583 42.4308 314.5 42.4308V44.4308C329.688 44.4308 342 32.1186 342 16.9308H340ZM339.119 10.2609C339.693 12.3858 340 14.6217 340 16.9308H342C342 14.4439 341.67 12.0326 341.05 9.73912L339.119 10.2609Z" fill="black" mask="url(#path-35-inside-4_438_269)"/>
</g>
<g filter="url(#filter15_d_438_269)">
<path d="M314.793 138.707C315.183 138.317 315.817 138.317 316.207 138.707L326.293 148.793C326.683 149.183 326.683 149.817 326.293 150.207L316.207 160.293C315.817 160.683 315.183 160.683 314.793 160.293L304.707 150.207C304.317 149.817 304.317 149.183 304.707 148.793L314.793 138.707Z" fill="#D9D9D9"/>
<path d="M315.146 139.061C315.342 138.865 315.658 138.865 315.854 139.061L325.939 149.146C326.135 149.342 326.135 149.658 325.939 149.854L315.854 159.939C315.658 160.135 315.342 160.135 315.146 159.939L305.061 149.854C304.865 149.658 304.865 149.342 305.061 149.146L315.146 139.061Z" stroke="black"/>
</g>
<path d="M315.354 341.061L322.939 348.646C323.254 348.961 323.031 349.5 322.586 349.5H307.414C306.969 349.5 306.746 348.961 307.061 348.646L314.646 341.061C314.842 340.865 315.158 340.865 315.354 341.061Z" stroke="#D9D9D9"/>
<rect x="78.0059" y="72.2037" width="3" height="8" rx="1.5" transform="rotate(15 78.0059 72.2037)" stroke="black"/>
<rect x="74.9004" y="83.7948" width="3" height="8" rx="1.5" transform="rotate(15 74.9004 83.7948)" stroke="black"/>
<rect x="65.584" y="118.568" width="3" height="8" rx="1.5" transform="rotate(15 65.584 118.568)" stroke="black"/>
<rect x="50.0528" y="176.524" width="3" height="8" rx="1.5" transform="rotate(15 50.0528 176.524)" stroke="black"/>
<rect x="28.3145" y="257.661" width="3" height="8" rx="1.5" transform="rotate(15 28.3145 257.661)" stroke="black"/>
<rect x="37.6309" y="222.888" width="3" height="8" rx="1.5" transform="rotate(15 37.6309 222.888)" stroke="black"/>
<rect x="15.8887" y="304.026" width="3" height="8" rx="1.5" transform="rotate(15 15.8887 304.026)" stroke="black"/>
<rect x="71.795" y="95.3859" width="3" height="8" rx="1.5" transform="rotate(15 71.795 95.3859)" stroke="black"/>
<rect x="56.2637" y="153.341" width="3" height="8" rx="1.5" transform="rotate(15 56.2637 153.341)" stroke="black"/>
<rect x="62.4786" y="130.159" width="3" height="8" rx="1.5" transform="rotate(15 62.4786 130.159)" stroke="black"/>
<rect x="46.9473" y="188.115" width="3" height="8" rx="1.5" transform="rotate(15 46.9473 188.115)" stroke="black"/>
<rect x="25.2051" y="269.253" width="3" height="8" rx="1.5" transform="rotate(15 25.2051 269.253)" stroke="black"/>
<rect x="34.5254" y="234.479" width="3" height="8" rx="1.5" transform="rotate(15 34.5254 234.479)" stroke="black"/>
<rect x="12.7832" y="315.617" width="3" height="8" rx="1.5" transform="rotate(15 12.7832 315.617)" stroke="black"/>
<rect x="68.6895" y="106.977" width="3" height="8" rx="1.5" transform="rotate(15 68.6895 106.977)" stroke="black"/>
<rect x="53.1582" y="164.933" width="3" height="8" rx="1.5" transform="rotate(15 53.1582 164.933)" stroke="black"/>
<rect x="40.7364" y="211.297" width="3" height="8" rx="1.5" transform="rotate(15 40.7364 211.297)" stroke="black"/>
<rect x="18.9942" y="292.435" width="3" height="8" rx="1.5" transform="rotate(15 18.9942 292.435)" stroke="black"/>
<rect x="59.3692" y="141.75" width="3" height="8" rx="1.5" transform="rotate(15 59.3692 141.75)" stroke="black"/>
<rect x="43.8418" y="199.706" width="3" height="8" rx="1.5" transform="rotate(15 43.8418 199.706)" stroke="black"/>
<rect x="22.0996" y="280.844" width="3" height="8" rx="1.5" transform="rotate(15 22.0996 280.844)" stroke="black"/>
<rect x="31.42" y="246.07" width="3" height="8" rx="1.5" transform="rotate(15 31.42 246.07)" stroke="black"/>
<rect x="9.67777" y="327.208" width="3" height="8" rx="1.5" transform="rotate(15 9.67777 327.208)" stroke="black"/>
<rect x="77.42" y="78.2581" width="1" height="8" rx="0.5" transform="rotate(15 77.42 78.2581)" stroke="black"/>
<rect x="68.0996" y="113.031" width="1" height="8" rx="0.5" transform="rotate(15 68.0996 113.031)" stroke="black"/>
<rect x="52.5723" y="170.987" width="1" height="8" rx="0.5" transform="rotate(15 52.5723 170.987)" stroke="black"/>
<rect x="30.8301" y="252.125" width="1" height="8" rx="0.5" transform="rotate(15 30.8301 252.125)" stroke="black"/>
<rect x="40.1504" y="217.351" width="1" height="8" rx="0.5" transform="rotate(15 40.1504 217.351)" stroke="black"/>
<rect x="18.4082" y="298.489" width="1" height="8" rx="0.5" transform="rotate(15 18.4082 298.489)" stroke="black"/>
<rect x="74.3145" y="89.8492" width="1" height="8" rx="0.5" transform="rotate(15 74.3145 89.8492)" stroke="black"/>
<rect x="58.7832" y="147.805" width="1" height="8" rx="0.5" transform="rotate(15 58.7832 147.805)" stroke="black"/>
<rect x="64.9942" y="124.623" width="1" height="8" rx="0.5" transform="rotate(15 64.9942 124.623)" stroke="black"/>
<rect x="49.4668" y="182.578" width="1" height="8" rx="0.5" transform="rotate(15 49.4668 182.578)" stroke="black"/>
<rect x="27.7246" y="263.716" width="1" height="8" rx="0.5" transform="rotate(15 27.7246 263.716)" stroke="black"/>
<rect x="37.045" y="228.942" width="1" height="8" rx="0.5" transform="rotate(15 37.045 228.942)" stroke="black"/>
<rect x="15.3028" y="310.08" width="1" height="8" rx="0.5" transform="rotate(15 15.3028 310.08)" stroke="black"/>
<rect x="71.209" y="101.44" width="1" height="8" rx="0.5" transform="rotate(15 71.209 101.44)" stroke="black"/>
<rect x="55.6778" y="159.396" width="1" height="8" rx="0.5" transform="rotate(15 55.6778 159.396)" stroke="black"/>
<rect x="43.2559" y="205.76" width="1" height="8" rx="0.5" transform="rotate(15 43.2559 205.76)" stroke="black"/>
<rect x="21.5137" y="286.898" width="1" height="8" rx="0.5" transform="rotate(15 21.5137 286.898)" stroke="black"/>
<rect x="61.8887" y="136.214" width="1" height="8" rx="0.5" transform="rotate(15 61.8887 136.214)" stroke="black"/>
<rect x="46.3614" y="194.169" width="1" height="8" rx="0.5" transform="rotate(15 46.3614 194.169)" stroke="black"/>
<rect x="24.6192" y="275.307" width="1" height="8" rx="0.5" transform="rotate(15 24.6192 275.307)" stroke="black"/>
<rect x="33.9356" y="240.534" width="1" height="8" rx="0.5" transform="rotate(15 33.9356 240.534)" stroke="black"/>
<rect x="12.1973" y="321.671" width="1" height="8" rx="0.5" transform="rotate(15 12.1973 321.671)" stroke="black"/>
<rect x="552.006" y="72.2037" width="3" height="8" rx="1.5" transform="rotate(15 552.006 72.2037)" stroke="black"/>
<rect x="548.9" y="83.7948" width="3" height="8" rx="1.5" transform="rotate(15 548.9 83.7948)" stroke="black"/>
<rect x="539.584" y="118.568" width="3" height="8" rx="1.5" transform="rotate(15 539.584 118.568)" stroke="black"/>
<rect x="524.053" y="176.524" width="3" height="8" rx="1.5" transform="rotate(15 524.053 176.524)" stroke="black"/>
<rect x="502.314" y="257.661" width="3" height="8" rx="1.5" transform="rotate(15 502.314 257.661)" stroke="black"/>
<rect x="511.631" y="222.888" width="3" height="8" rx="1.5" transform="rotate(15 511.631 222.888)" stroke="black"/>
<rect x="489.889" y="304.026" width="3" height="8" rx="1.5" transform="rotate(15 489.889 304.026)" stroke="black"/>
<rect x="545.795" y="95.3859" width="3" height="8" rx="1.5" transform="rotate(15 545.795 95.3859)" stroke="black"/>
<rect x="530.264" y="153.341" width="3" height="8" rx="1.5" transform="rotate(15 530.264 153.341)" stroke="black"/>
<rect x="536.479" y="130.159" width="3" height="8" rx="1.5" transform="rotate(15 536.479 130.159)" stroke="black"/>
<rect x="520.947" y="188.115" width="3" height="8" rx="1.5" transform="rotate(15 520.947 188.115)" stroke="black"/>
<rect x="499.205" y="269.253" width="3" height="8" rx="1.5" transform="rotate(15 499.205 269.253)" stroke="black"/>
<rect x="508.525" y="234.479" width="3" height="8" rx="1.5" transform="rotate(15 508.525 234.479)" stroke="black"/>
<rect x="486.783" y="315.617" width="3" height="8" rx="1.5" transform="rotate(15 486.783 315.617)" stroke="black"/>
<rect x="542.689" y="106.977" width="3" height="8" rx="1.5" transform="rotate(15 542.689 106.977)" stroke="black"/>
<rect x="527.158" y="164.933" width="3" height="8" rx="1.5" transform="rotate(15 527.158 164.933)" stroke="black"/>
<rect x="514.736" y="211.297" width="3" height="8" rx="1.5" transform="rotate(15 514.736 211.297)" stroke="black"/>
<rect x="492.994" y="292.435" width="3" height="8" rx="1.5" transform="rotate(15 492.994 292.435)" stroke="black"/>
<rect x="533.369" y="141.75" width="3" height="8" rx="1.5" transform="rotate(15 533.369 141.75)" stroke="black"/>
<rect x="517.842" y="199.706" width="3" height="8" rx="1.5" transform="rotate(15 517.842 199.706)" stroke="black"/>
<rect x="496.1" y="280.844" width="3" height="8" rx="1.5" transform="rotate(15 496.1 280.844)" stroke="black"/>
<rect x="505.42" y="246.07" width="3" height="8" rx="1.5" transform="rotate(15 505.42 246.07)" stroke="black"/>
<rect x="483.678" y="327.208" width="3" height="8" rx="1.5" transform="rotate(15 483.678 327.208)" stroke="black"/>
<rect x="551.42" y="78.2581" width="1" height="8" rx="0.5" transform="rotate(15 551.42 78.2581)" stroke="black"/>
<rect x="542.1" y="113.031" width="1" height="8" rx="0.5" transform="rotate(15 542.1 113.031)" stroke="black"/>
<rect x="526.572" y="170.987" width="1" height="8" rx="0.5" transform="rotate(15 526.572 170.987)" stroke="black"/>
<rect x="504.83" y="252.125" width="1" height="8" rx="0.5" transform="rotate(15 504.83 252.125)" stroke="black"/>
<rect x="514.15" y="217.351" width="1" height="8" rx="0.5" transform="rotate(15 514.15 217.351)" stroke="black"/>
<rect x="492.408" y="298.489" width="1" height="8" rx="0.5" transform="rotate(15 492.408 298.489)" stroke="black"/>
<rect x="548.314" y="89.8492" width="1" height="8" rx="0.5" transform="rotate(15 548.314 89.8492)" stroke="black"/>
<rect x="532.783" y="147.805" width="1" height="8" rx="0.5" transform="rotate(15 532.783 147.805)" stroke="black"/>
<rect x="538.994" y="124.623" width="1" height="8" rx="0.5" transform="rotate(15 538.994 124.623)" stroke="black"/>
<rect x="523.467" y="182.578" width="1" height="8" rx="0.5" transform="rotate(15 523.467 182.578)" stroke="black"/>
<rect x="501.725" y="263.716" width="1" height="8" rx="0.5" transform="rotate(15 501.725 263.716)" stroke="black"/>
<rect x="511.045" y="228.942" width="1" height="8" rx="0.5" transform="rotate(15 511.045 228.942)" stroke="black"/>
<rect x="489.303" y="310.08" width="1" height="8" rx="0.5" transform="rotate(15 489.303 310.08)" stroke="black"/>
<rect x="545.209" y="101.44" width="1" height="8" rx="0.5" transform="rotate(15 545.209 101.44)" stroke="black"/>
<rect x="529.678" y="159.396" width="1" height="8" rx="0.5" transform="rotate(15 529.678 159.396)" stroke="black"/>
<rect x="517.256" y="205.76" width="1" height="8" rx="0.5" transform="rotate(15 517.256 205.76)" stroke="black"/>
<rect x="495.514" y="286.898" width="1" height="8" rx="0.5" transform="rotate(15 495.514 286.898)" stroke="black"/>
<rect x="535.889" y="136.214" width="1" height="8" rx="0.5" transform="rotate(15 535.889 136.214)" stroke="black"/>
<rect x="520.361" y="194.169" width="1" height="8" rx="0.5" transform="rotate(15 520.361 194.169)" stroke="black"/>
<rect x="498.619" y="275.307" width="1" height="8" rx="0.5" transform="rotate(15 498.619 275.307)" stroke="black"/>
<rect x="507.936" y="240.534" width="1" height="8" rx="0.5" transform="rotate(15 507.936 240.534)" stroke="black"/>
<rect x="486.197" y="321.671" width="1" height="8" rx="0.5" transform="rotate(15 486.197 321.671)" stroke="black"/>
<rect x="-0.353553" y="0.612372" width="3" height="8" rx="1.5" transform="matrix(-0.965926 0.258819 0.258819 0.965926 79.1191 71.7037)" stroke="black"/>
<rect x="-0.353553" y="0.612372" width="3" height="8" rx="1.5" transform="matrix(-0.965926 0.258819 0.258819 0.965926 82.2246 83.2948)" stroke="black"/>
<rect x="-0.353553" y="0.612372" width="3" height="8" rx="1.5" transform="matrix(-0.965926 0.258819 0.258819 0.965926 91.541 118.068)" stroke="black"/>
<rect x="-0.353553" y="0.612372" width="3" height="8" rx="1.5" transform="matrix(-0.965926 0.258819 0.258819 0.965926 107.072 176.024)" stroke="black"/>
<rect x="-0.353553" y="0.612372" width="3" height="8" rx="1.5" transform="matrix(-0.965926 0.258819 0.258819 0.965926 128.811 257.161)" stroke="black"/>
<rect x="-0.353553" y="0.612372" width="3" height="8" rx="1.5" transform="matrix(-0.965926 0.258819 0.258819 0.965926 119.494 222.388)" stroke="black"/>
<rect x="-0.353553" y="0.612372" width="3" height="8" rx="1.5" transform="matrix(-0.965926 0.258819 0.258819 0.965926 141.236 303.526)" stroke="black"/>
<rect x="-0.353553" y="0.612372" width="3" height="8" rx="1.5" transform="matrix(-0.965926 0.258819 0.258819 0.965926 85.33 94.8859)" stroke="black"/>
<rect x="-0.353553" y="0.612372" width="3" height="8" rx="1.5" transform="matrix(-0.965926 0.258819 0.258819 0.965926 100.861 152.841)" stroke="black"/>
<rect x="-0.353553" y="0.612372" width="3" height="8" rx="1.5" transform="matrix(-0.965926 0.258819 0.258819 0.965926 94.6464 129.659)" stroke="black"/>
<rect x="-0.353553" y="0.612372" width="3" height="8" rx="1.5" transform="matrix(-0.965926 0.258819 0.258819 0.965926 110.178 187.615)" stroke="black"/>
<rect x="-0.353553" y="0.612372" width="3" height="8" rx="1.5" transform="matrix(-0.965926 0.258819 0.258819 0.965926 131.92 268.753)" stroke="black"/>
<rect x="-0.353553" y="0.612372" width="3" height="8" rx="1.5" transform="matrix(-0.965926 0.258819 0.258819 0.965926 122.6 233.979)" stroke="black"/>
<rect x="-0.353553" y="0.612372" width="3" height="8" rx="1.5" transform="matrix(-0.965926 0.258819 0.258819 0.965926 144.342 315.117)" stroke="black"/>
<rect x="-0.353553" y="0.612372" width="3" height="8" rx="1.5" transform="matrix(-0.965926 0.258819 0.258819 0.965926 88.4355 106.477)" stroke="black"/>
<rect x="-0.353553" y="0.612372" width="3" height="8" rx="1.5" transform="matrix(-0.965926 0.258819 0.258819 0.965926 103.967 164.433)" stroke="black"/>
<rect x="-0.353553" y="0.612372" width="3" height="8" rx="1.5" transform="matrix(-0.965926 0.258819 0.258819 0.965926 116.389 210.797)" stroke="black"/>
<rect x="-0.353553" y="0.612372" width="3" height="8" rx="1.5" transform="matrix(-0.965926 0.258819 0.258819 0.965926 138.131 291.935)" stroke="black"/>
<rect x="-0.353553" y="0.612372" width="3" height="8" rx="1.5" transform="matrix(-0.965926 0.258819 0.258819 0.965926 97.7558 141.25)" stroke="black"/>
<rect x="-0.353553" y="0.612372" width="3" height="8" rx="1.5" transform="matrix(-0.965926 0.258819 0.258819 0.965926 113.283 199.206)" stroke="black"/>
<rect x="-0.353553" y="0.612372" width="3" height="8" rx="1.5" transform="matrix(-0.965926 0.258819 0.258819 0.965926 135.025 280.344)" stroke="black"/>
<rect x="-0.353553" y="0.612372" width="3" height="8" rx="1.5" transform="matrix(-0.965926 0.258819 0.258819 0.965926 125.705 245.57)" stroke="black"/>
<rect x="-0.353553" y="0.612372" width="3" height="8" rx="1.5" transform="matrix(-0.965926 0.258819 0.258819 0.965926 147.447 326.708)" stroke="black"/>
<rect x="-0.353553" y="0.612372" width="1" height="8" rx="0.5" transform="matrix(-0.965926 0.258819 0.258819 0.965926 79.705 77.7581)" stroke="black"/>
<rect x="-0.353553" y="0.612372" width="1" height="8" rx="0.5" transform="matrix(-0.965926 0.258819 0.258819 0.965926 89.0254 112.531)" stroke="black"/>
<rect x="-0.353553" y="0.612372" width="1" height="8" rx="0.5" transform="matrix(-0.965926 0.258819 0.258819 0.965926 104.553 170.487)" stroke="black"/>
<rect x="-0.353553" y="0.612372" width="1" height="8" rx="0.5" transform="matrix(-0.965926 0.258819 0.258819 0.965926 126.295 251.625)" stroke="black"/>
<rect x="-0.353553" y="0.612372" width="1" height="8" rx="0.5" transform="matrix(-0.965926 0.258819 0.258819 0.965926 116.975 216.851)" stroke="black"/>
<rect x="-0.353553" y="0.612372" width="1" height="8" rx="0.5" transform="matrix(-0.965926 0.258819 0.258819 0.965926 138.717 297.989)" stroke="black"/>
<rect x="-0.353553" y="0.612372" width="1" height="8" rx="0.5" transform="matrix(-0.965926 0.258819 0.258819 0.965926 82.8105 89.3492)" stroke="black"/>
<rect x="-0.353553" y="0.612372" width="1" height="8" rx="0.5" transform="matrix(-0.965926 0.258819 0.258819 0.965926 98.3418 147.305)" stroke="black"/>
<rect x="-0.353553" y="0.612372" width="1" height="8" rx="0.5" transform="matrix(-0.965926 0.258819 0.258819 0.965926 92.1308 124.123)" stroke="black"/>
<rect x="-0.353553" y="0.612372" width="1" height="8" rx="0.5" transform="matrix(-0.965926 0.258819 0.258819 0.965926 107.658 182.078)" stroke="black"/>
<rect x="-0.353553" y="0.612372" width="1" height="8" rx="0.5" transform="matrix(-0.965926 0.258819 0.258819 0.965926 129.4 263.216)" stroke="black"/>
<rect x="-0.353553" y="0.612372" width="1" height="8" rx="0.5" transform="matrix(-0.965926 0.258819 0.258819 0.965926 120.08 228.442)" stroke="black"/>
<rect x="-0.353553" y="0.612372" width="1" height="8" rx="0.5" transform="matrix(-0.965926 0.258819 0.258819 0.965926 141.822 309.58)" stroke="black"/>
<rect x="-0.353553" y="0.612372" width="1" height="8" rx="0.5" transform="matrix(-0.965926 0.258819 0.258819 0.965926 85.916 100.94)" stroke="black"/>
<rect x="-0.353553" y="0.612372" width="1" height="8" rx="0.5" transform="matrix(-0.965926 0.258819 0.258819 0.965926 101.447 158.896)" stroke="black"/>
<rect x="-0.353553" y="0.612372" width="1" height="8" rx="0.5" transform="matrix(-0.965926 0.258819 0.258819 0.965926 113.869 205.26)" stroke="black"/>
<rect x="-0.353553" y="0.612372" width="1" height="8" rx="0.5" transform="matrix(-0.965926 0.258819 0.258819 0.965926 135.611 286.398)" stroke="black"/>
<rect x="-0.353553" y="0.612372" width="1" height="8" rx="0.5" transform="matrix(-0.965926 0.258819 0.258819 0.965926 95.2363 135.714)" stroke="black"/>
<rect x="-0.353553" y="0.612372" width="1" height="8" rx="0.5" transform="matrix(-0.965926 0.258819 0.258819 0.965926 110.764 193.669)" stroke="black"/>
<rect x="-0.353553" y="0.612372" width="1" height="8" rx="0.5" transform="matrix(-0.965926 0.258819 0.258819 0.965926 132.506 274.807)" stroke="black"/>
<rect x="-0.353553" y="0.612372" width="1" height="8" rx="0.5" transform="matrix(-0.965926 0.258819 0.258819 0.965926 123.189 240.034)" stroke="black"/>
<rect x="-0.353553" y="0.612372" width="1" height="8" rx="0.5" transform="matrix(-0.965926 0.258819 0.258819 0.965926 144.928 321.171)" stroke="black"/>
<rect x="-0.353553" y="0.612372" width="3" height="8" rx="1.5" transform="matrix(-0.965926 0.258819 0.258819 0.965926 553.119 71.7037)" stroke="black"/>
<rect x="-0.353553" y="0.612372" width="3" height="8" rx="1.5" transform="matrix(-0.965926 0.258819 0.258819 0.965926 556.225 83.2948)" stroke="black"/>
<rect x="-0.353553" y="0.612372" width="3" height="8" rx="1.5" transform="matrix(-0.965926 0.258819 0.258819 0.965926 565.541 118.068)" stroke="black"/>
<rect x="-0.353553" y="0.612372" width="3" height="8" rx="1.5" transform="matrix(-0.965926 0.258819 0.258819 0.965926 581.072 176.024)" stroke="black"/>
<rect x="-0.353553" y="0.612372" width="3" height="8" rx="1.5" transform="matrix(-0.965926 0.258819 0.258819 0.965926 602.811 257.161)" stroke="black"/>
<rect x="-0.353553" y="0.612372" width="3" height="8" rx="1.5" transform="matrix(-0.965926 0.258819 0.258819 0.965926 593.494 222.388)" stroke="black"/>
<rect x="-0.353553" y="0.612372" width="3" height="8" rx="1.5" transform="matrix(-0.965926 0.258819 0.258819 0.965926 615.236 303.526)" stroke="black"/>
<rect x="-0.353553" y="0.612372" width="3" height="8" rx="1.5" transform="matrix(-0.965926 0.258819 0.258819 0.965926 559.33 94.8859)" stroke="black"/>
<rect x="-0.353553" y="0.612372" width="3" height="8" rx="1.5" transform="matrix(-0.965926 0.258819 0.258819 0.965926 574.861 152.841)" stroke="black"/>
<rect x="-0.353553" y="0.612372" width="3" height="8" rx="1.5" transform="matrix(-0.965926 0.258819 0.258819 0.965926 568.646 129.659)" stroke="black"/>
<rect x="-0.353553" y="0.612372" width="3" height="8" rx="1.5" transform="matrix(-0.965926 0.258819 0.258819 0.965926 584.178 187.615)" stroke="black"/>
<rect x="-0.353553" y="0.612372" width="3" height="8" rx="1.5" transform="matrix(-0.965926 0.258819 0.258819 0.965926 605.92 268.753)" stroke="black"/>
<rect x="-0.353553" y="0.612372" width="3" height="8" rx="1.5" transform="matrix(-0.965926 0.258819 0.258819 0.965926 596.6 233.979)" stroke="black"/>
<rect x="-0.353553" y="0.612372" width="3" height="8" rx="1.5" transform="matrix(-0.965926 0.258819 0.258819 0.965926 618.342 315.117)" stroke="black"/>
<rect x="-0.353553" y="0.612372" width="3" height="8" rx="1.5" transform="matrix(-0.965926 0.258819 0.258819 0.965926 562.436 106.477)" stroke="black"/>
<rect x="-0.353553" y="0.612372" width="3" height="8" rx="1.5" transform="matrix(-0.965926 0.258819 0.258819 0.965926 577.967 164.433)" stroke="black"/>
<rect x="-0.353553" y="0.612372" width="3" height="8" rx="1.5" transform="matrix(-0.965926 0.258819 0.258819 0.965926 590.389 210.797)" stroke="black"/>
<rect x="-0.353553" y="0.612372" width="3" height="8" rx="1.5" transform="matrix(-0.965926 0.258819 0.258819 0.965926 612.131 291.935)" stroke="black"/>
<rect x="-0.353553" y="0.612372" width="3" height="8" rx="1.5" transform="matrix(-0.965926 0.258819 0.258819 0.965926 571.756 141.25)" stroke="black"/>
<rect x="-0.353553" y="0.612372" width="3" height="8" rx="1.5" transform="matrix(-0.965926 0.258819 0.258819 0.965926 587.283 199.206)" stroke="black"/>
<rect x="-0.353553" y="0.612372" width="3" height="8" rx="1.5" transform="matrix(-0.965926 0.258819 0.258819 0.965926 609.025 280.344)" stroke="black"/>
<rect x="-0.353553" y="0.612372" width="3" height="8" rx="1.5" transform="matrix(-0.965926 0.258819 0.258819 0.965926 599.705 245.57)" stroke="black"/>
<rect x="-0.353553" y="0.612372" width="3" height="8" rx="1.5" transform="matrix(-0.965926 0.258819 0.258819 0.965926 621.447 326.708)" stroke="black"/>
<rect x="-0.353553" y="0.612372" width="1" height="8" rx="0.5" transform="matrix(-0.965926 0.258819 0.258819 0.965926 553.705 77.7581)" stroke="black"/>
<rect x="-0.353553" y="0.612372" width="1" height="8" rx="0.5" transform="matrix(-0.965926 0.258819 0.258819 0.965926 563.025 112.531)" stroke="black"/>
<rect x="-0.353553" y="0.612372" width="1" height="8" rx="0.5" transform="matrix(-0.965926 0.258819 0.258819 0.965926 578.553 170.487)" stroke="black"/>
<rect x="-0.353553" y="0.612372" width="1" height="8" rx="0.5" transform="matrix(-0.965926 0.258819 0.258819 0.965926 600.295 251.625)" stroke="black"/>
<rect x="-0.353553" y="0.612372" width="1" height="8" rx="0.5" transform="matrix(-0.965926 0.258819 0.258819 0.965926 590.975 216.851)" stroke="black"/>
<rect x="-0.353553" y="0.612372" width="1" height="8" rx="0.5" transform="matrix(-0.965926 0.258819 0.258819 0.965926 612.717 297.989)" stroke="black"/>
<rect x="-0.353553" y="0.612372" width="1" height="8" rx="0.5" transform="matrix(-0.965926 0.258819 0.258819 0.965926 556.811 89.3492)" stroke="black"/>
<rect x="-0.353553" y="0.612372" width="1" height="8" rx="0.5" transform="matrix(-0.965926 0.258819 0.258819 0.965926 572.342 147.305)" stroke="black"/>
<rect x="-0.353553" y="0.612372" width="1" height="8" rx="0.5" transform="matrix(-0.965926 0.258819 0.258819 0.965926 566.131 124.123)" stroke="black"/>
<rect x="-0.353553" y="0.612372" width="1" height="8" rx="0.5" transform="matrix(-0.965926 0.258819 0.258819 0.965926 581.658 182.078)" stroke="black"/>
<rect x="-0.353553" y="0.612372" width="1" height="8" rx="0.5" transform="matrix(-0.965926 0.258819 0.258819 0.965926 603.4 263.216)" stroke="black"/>
<rect x="-0.353553" y="0.612372" width="1" height="8" rx="0.5" transform="matrix(-0.965926 0.258819 0.258819 0.965926 594.08 228.442)" stroke="black"/>
<rect x="-0.353553" y="0.612372" width="1" height="8" rx="0.5" transform="matrix(-0.965926 0.258819 0.258819 0.965926 615.822 309.58)" stroke="black"/>
<rect x="-0.353553" y="0.612372" width="1" height="8" rx="0.5" transform="matrix(-0.965926 0.258819 0.258819 0.965926 559.916 100.94)" stroke="black"/>
<rect x="-0.353553" y="0.612372" width="1" height="8" rx="0.5" transform="matrix(-0.965926 0.258819 0.258819 0.965926 575.447 158.896)" stroke="black"/>
<rect x="-0.353553" y="0.612372" width="1" height="8" rx="0.5" transform="matrix(-0.965926 0.258819 0.258819 0.965926 587.869 205.26)" stroke="black"/>
<rect x="-0.353553" y="0.612372" width="1" height="8" rx="0.5" transform="matrix(-0.965926 0.258819 0.258819 0.965926 609.611 286.398)" stroke="black"/>
<rect x="-0.353553" y="0.612372" width="1" height="8" rx="0.5" transform="matrix(-0.965926 0.258819 0.258819 0.965926 569.236 135.714)" stroke="black"/>
<rect x="-0.353553" y="0.612372" width="1" height="8" rx="0.5" transform="matrix(-0.965926 0.258819 0.258819 0.965926 584.764 193.669)" stroke="black"/>
<rect x="-0.353553" y="0.612372" width="1" height="8" rx="0.5" transform="matrix(-0.965926 0.258819 0.258819 0.965926 606.506 274.807)" stroke="black"/>
<rect x="-0.353553" y="0.612372" width="1" height="8" rx="0.5" transform="matrix(-0.965926 0.258819 0.258819 0.965926 597.189 240.034)" stroke="black"/>
<rect x="-0.353553" y="0.612372" width="1" height="8" rx="0.5" transform="matrix(-0.965926 0.258819 0.258819 0.965926 618.928 321.171)" stroke="black"/>
<defs>
<filter id="filter0_d_438_269" x="57" y="291" width="44.1328" height="47.1328" filterUnits="userSpaceOnUse" color-interpolation-filters="sRGB">
<feFlood flood-opacity="0" result="BackgroundImageFix"/>
<feColorMatrix in="SourceAlpha" type="matrix" values="0 0 0 0 0 0 0 0 0 0 0 0 0 0 0 0 0 0 127 0" result="hardAlpha"/>
<feOffset dy="-3"/>
<feComposite in2="hardAlpha" operator="out"/>
<feColorMatrix type="matrix" values="0 0 0 0 0 0 0 0 0 0 0 0 0 0 0 0 0 0 0.4 0"/>
<feBlend mode="normal" in2="BackgroundImageFix" result="effect1_dropShadow_438_269"/>
<feBlend mode="normal" in="SourceGraphic" in2="effect1_dropShadow_438_269" result="shape"/>
</filter>
<filter id="filter1_d_438_269" x="531" y="291" width="44.1328" height="47.1328" filterUnits="userSpaceOnUse" color-interpolation-filters="sRGB">
<feFlood flood-opacity="0" result="BackgroundImageFix"/>
<feColorMatrix in="SourceAlpha" type="matrix" values="0 0 0 0 0 0 0 0 0 0 0 0 0 0 0 0 0 0 127 0" result="hardAlpha"/>
<feOffset dy="-3"/>
<feComposite in2="hardAlpha" operator="out"/>
<feColorMatrix type="matrix" values="0 0 0 0 0 0 0 0 0 0 0 0 0 0 0 0 0 0 0.4 0"/>
<feBlend mode="normal" in2="BackgroundImageFix" result="effect1_dropShadow_438_269"/>
<feBlend mode="normal" in="SourceGraphic" in2="effect1_dropShadow_438_269" result="shape"/>
</filter>
<filter id="filter2_di_438_269" x="340.387" y="42.9742" width="278.969" height="55.5258" filterUnits="userSpaceOnUse" color-interpolation-filters="sRGB">
<feFlood flood-opacity="0" result="BackgroundImageFix"/>
<feColorMatrix in="SourceAlpha" type="matrix" values="0 0 0 0 0 0 0 0 0 0 0 0 0 0 0 0 0 0 127 0" result="hardAlpha"/>
<feOffset dy="4"/>
<feGaussianBlur stdDeviation="2"/>
<feComposite in2="hardAlpha" operator="out"/>
<feColorMatrix type="matrix" values="0 0 0 0 0 0 0 0 0 0 0 0 0 0 0 0 0 0 0.25 0"/>
<feBlend mode="normal" in2="BackgroundImageFix" result="effect1_dropShadow_438_269"/>
<feBlend mode="normal" in="SourceGraphic" in2="effect1_dropShadow_438_269" result="shape"/>
<feColorMatrix in="SourceAlpha" type="matrix" values="0 0 0 0 0 0 0 0 0 0 0 0 0 0 0 0 0 0 127 0" result="hardAlpha"/>
<feOffset dy="4"/>
<feGaussianBlur stdDeviation="2"/>
<feComposite in2="hardAlpha" operator="arithmetic" k2="-1" k3="1"/>
<feColorMatrix type="matrix" values="0 0 0 0 1 0 0 0 0 1 0 0 0 0 1 0 0 0 0.75 0"/>
<feBlend mode="normal" in2="shape" result="effect2_innerShadow_438_269"/>
</filter>
<filter id="filter3_di_438_269" x="13.6445" y="42.9742" width="278.969" height="55.5258" filterUnits="userSpaceOnUse" color-interpolation-filters="sRGB">
<feFlood flood-opacity="0" result="BackgroundImageFix"/>
<feColorMatrix in="SourceAlpha" type="matrix" values="0 0 0 0 0 0 0 0 0 0 0 0 0 0 0 0 0 0 127 0" result="hardAlpha"/>
<feOffset dy="4"/>
<feGaussianBlur stdDeviation="2"/>
<feComposite in2="hardAlpha" operator="out"/>
<feColorMatrix type="matrix" values="0 0 0 0 0 0 0 0 0 0 0 0 0 0 0 0 0 0 0.25 0"/>
<feBlend mode="normal" in2="BackgroundImageFix" result="effect1_dropShadow_438_269"/>
<feBlend mode="normal" in="SourceGraphic" in2="effect1_dropShadow_438_269" result="shape"/>
<feColorMatrix in="SourceAlpha" type="matrix" values="0 0 0 0 0 0 0 0 0 0 0 0 0 0 0 0 0 0 127 0" result="hardAlpha"/>
<feOffset dy="4"/>
<feGaussianBlur stdDeviation="2"/>
<feComposite in2="hardAlpha" operator="arithmetic" k2="-1" k3="1"/>
<feColorMatrix type="matrix" values="0 0 0 0 1 0 0 0 0 1 0 0 0 0 1 0 0 0 0.75 0"/>
<feBlend mode="normal" in2="shape" result="effect2_innerShadow_438_269"/>
</filter>
<filter id="filter4_d_438_269" x="58" y="370" width="41" height="16" filterUnits="userSpaceOnUse" color-interpolation-filters="sRGB">
<feFlood flood-opacity="0" result="BackgroundImageFix"/>
<feColorMatrix in="SourceAlpha" type="matrix" values="0 0 0 0 0 0 0 0 0 0 0 0 0 0 0 0 0 0 127 0" result="hardAlpha"/>
<feOffset dy="4"/>
<feGaussianBlur stdDeviation="2"/>
<feComposite in2="hardAlpha" operator="out"/>
<feColorMatrix type="matrix" values="0 0 0 0 0 0 0 0 0 0 0 0 0 0 0 0 0 0 0.25 0"/>
<feBlend mode="normal" in2="BackgroundImageFix" result="effect1_dropShadow_438_269"/>
<feBlend mode="normal" in="SourceGraphic" in2="effect1_dropShadow_438_269" result="shape"/>
</filter>
<filter id="filter5_d_438_269" x="532" y="370" width="41" height="16" filterUnits="userSpaceOnUse" color-interpolation-filters="sRGB">
<feFlood flood-opacity="0" result="BackgroundImageFix"/>
<feColorMatrix in="SourceAlpha" type="matrix" values="0 0 0 0 0 0 0 0 0 0 0 0 0 0 0 0 0 0 127 0" result="hardAlpha"/>
<feOffset dy="4"/>
<feGaussianBlur stdDeviation="2"/>
<feComposite in2="hardAlpha" operator="out"/>
<feColorMatrix type="matrix" values="0 0 0 0 0 0 0 0 0 0 0 0 0 0 0 0 0 0 0.25 0"/>
<feBlend mode="normal" in2="BackgroundImageFix" result="effect1_dropShadow_438_269"/>
<feBlend mode="normal" in="SourceGraphic" in2="effect1_dropShadow_438_269" result="shape"/>
</filter>
<filter id="filter6_d_438_269" x="3" y="335" width="151" height="47" filterUnits="userSpaceOnUse" color-interpolation-filters="sRGB">
<feFlood flood-opacity="0" result="BackgroundImageFix"/>
<feColorMatrix in="SourceAlpha" type="matrix" values="0 0 0 0 0 0 0 0 0 0 0 0 0 0 0 0 0 0 127 0" result="hardAlpha"/>
<feOffset dy="4"/>
<feGaussianBlur stdDeviation="2"/>
<feComposite in2="hardAlpha" operator="out"/>
<feColorMatrix type="matrix" values="0 0 0 0 0 0 0 0 0 0 0 0 0 0 0 0 0 0 0.25 0"/>
<feBlend mode="normal" in2="BackgroundImageFix" result="effect1_dropShadow_438_269"/>
<feBlend mode="normal" in="SourceGraphic" in2="effect1_dropShadow_438_269" result="shape"/>
</filter>
<filter id="filter7_d_438_269" x="477" y="335" width="151" height="47" filterUnits="userSpaceOnUse" color-interpolation-filters="sRGB">
<feFlood flood-opacity="0" result="BackgroundImageFix"/>
<feColorMatrix in="SourceAlpha" type="matrix" values="0 0 0 0 0 0 0 0 0 0 0 0 0 0 0 0 0 0 127 0" result="hardAlpha"/>
<feOffset dy="4"/>
<feGaussianBlur stdDeviation="2"/>
<feComposite in2="hardAlpha" operator="out"/>
<feColorMatrix type="matrix" values="0 0 0 0 0 0 0 0 0 0 0 0 0 0 0 0 0 0 0.25 0"/>
<feBlend mode="normal" in2="BackgroundImageFix" result="effect1_dropShadow_438_269"/>
<feBlend mode="normal" in="SourceGraphic" in2="effect1_dropShadow_438_269" result="shape"/>
</filter>
<filter id="filter8_d_438_269" x="0" y="331" width="157" height="15" filterUnits="userSpaceOnUse" color-interpolation-filters="sRGB">
<feFlood flood-opacity="0" result="BackgroundImageFix"/>
<feColorMatrix in="SourceAlpha" type="matrix" values="0 0 0 0 0 0 0 0 0 0 0 0 0 0 0 0 0 0 127 0" result="hardAlpha"/>
<feOffset dy="4"/>
<feGaussianBlur stdDeviation="2"/>
<feComposite in2="hardAlpha" operator="out"/>
<feColorMatrix type="matrix" values="0 0 0 0 0 0 0 0 0 0 0 0 0 0 0 0 0 0 0.1 0"/>
<feBlend mode="normal" in2="BackgroundImageFix" result="effect1_dropShadow_438_269"/>
<feBlend mode="normal" in="SourceGraphic" in2="effect1_dropShadow_438_269" result="shape"/>
</filter>
<filter id="filter9_d_438_269" x="474" y="331" width="157" height="15" filterUnits="userSpaceOnUse" color-interpolation-filters="sRGB">
<feFlood flood-opacity="0" result="BackgroundImageFix"/>
<feColorMatrix in="SourceAlpha" type="matrix" values="0 0 0 0 0 0 0 0 0 0 0 0 0 0 0 0 0 0 127 0" result="hardAlpha"/>
<feOffset dy="4"/>
<feGaussianBlur stdDeviation="2"/>
<feComposite in2="hardAlpha" operator="out"/>
<feColorMatrix type="matrix" values="0 0 0 0 0 0 0 0 0 0 0 0 0 0 0 0 0 0 0.1 0"/>
<feBlend mode="normal" in2="BackgroundImageFix" result="effect1_dropShadow_438_269"/>
<feBlend mode="normal" in="SourceGraphic" in2="effect1_dropShadow_438_269" result="shape"/>
</filter>
<filter id="filter10_d_438_269" x="279.812" y="46.5" width="69.875" height="329" filterUnits="userSpaceOnUse" color-interpolation-filters="sRGB">
<feFlood flood-opacity="0" result="BackgroundImageFix"/>
<feColorMatrix in="SourceAlpha" type="matrix" values="0 0 0 0 0 0 0 0 0 0 0 0 0 0 0 0 0 0 127 0" result="hardAlpha"/>
<feOffset dy="4"/>
<feGaussianBlur stdDeviation="2"/>
<feComposite in2="hardAlpha" operator="out"/>
<feColorMatrix type="matrix" values="0 0 0 0 0 0 0 0 0 0 0 0 0 0 0 0 0 0 0.25 0"/>
<feBlend mode="normal" in2="BackgroundImageFix" result="effect1_dropShadow_438_269"/>
<feBlend mode="normal" in="SourceGraphic" in2="effect1_dropShadow_438_269" result="shape"/>
</filter>
<filter id="filter11_d_438_269" x="186" y="426" width="258" height="35" filterUnits="userSpaceOnUse" color-interpolation-filters="sRGB">
<feFlood flood-opacity="0" result="BackgroundImageFix"/>
<feColorMatrix in="SourceAlpha" type="matrix" values="0 0 0 0 0 0 0 0 0 0 0 0 0 0 0 0 0 0 127 0" result="hardAlpha"/>
<feOffset dy="4"/>
<feGaussianBlur stdDeviation="2"/>
<feComposite in2="hardAlpha" operator="out"/>
<feColorMatrix type="matrix" values="0 0 0 0 0 0 0 0 0 0 0 0 0 0 0 0 0 0 0.25 0"/>
<feBlend mode="normal" in2="BackgroundImageFix" result="effect1_dropShadow_438_269"/>
<feBlend mode="normal" in="SourceGraphic" in2="effect1_dropShadow_438_269" result="shape"/>
</filter>
<filter id="filter12_d_438_269" x="229" y="0.25" width="173" height="105.25" filterUnits="userSpaceOnUse" color-interpolation-filters="sRGB">
<feFlood flood-opacity="0" result="BackgroundImageFix"/>
<feColorMatrix in="SourceAlpha" type="matrix" values="0 0 0 0 0 0 0 0 0 0 0 0 0 0 0 0 0 0 127 0" result="hardAlpha"/>
<feOffset dy="4"/>
<feGaussianBlur stdDeviation="2"/>
<feComposite in2="hardAlpha" operator="out"/>
<feColorMatrix type="matrix" values="0 0 0 0 0 0 0 0 0 0 0 0 0 0 0 0 0 0 0.25 0"/>
<feBlend mode="normal" in2="BackgroundImageFix" result="effect1_dropShadow_438_269"/>
<feBlend mode="normal" in="SourceGraphic" in2="effect1_dropShadow_438_269" result="shape"/>
</filter>
<filter id="filter13_d_438_269" x="299" y="30.2461" width="31" height="30" filterUnits="userSpaceOnUse" color-interpolation-filters="sRGB">
<feFlood flood-opacity="0" result="BackgroundImageFix"/>
<feColorMatrix in="SourceAlpha" type="matrix" values="0 0 0 0 0 0 0 0 0 0 0 0 0 0 0 0 0 0 127 0" result="hardAlpha"/>
<feOffset dy="4"/>
<feGaussianBlur stdDeviation="2"/>
<feComposite in2="hardAlpha" operator="out"/>
<feColorMatrix type="matrix" values="0 0 0 0 0 0 0 0 0 0 0 0 0 0 0 0 0 0 0.25 0"/>
<feBlend mode="normal" in2="BackgroundImageFix" result="effect1_dropShadow_438_269"/>
<feBlend mode="normal" in="SourceGraphic" in2="effect1_dropShadow_438_269" result="shape"/>
</filter>
<filter id="filter14_d_438_269" x="284" y="10" width="61" height="41.4308" filterUnits="userSpaceOnUse" color-interpolation-filters="sRGB">
<feFlood flood-opacity="0" result="BackgroundImageFix"/>
<feColorMatrix in="SourceAlpha" type="matrix" values="0 0 0 0 0 0 0 0 0 0 0 0 0 0 0 0 0 0 127 0" result="hardAlpha"/>
<feOffset dy="4"/>
<feGaussianBlur stdDeviation="2"/>
<feComposite in2="hardAlpha" operator="out"/>
<feColorMatrix type="matrix" values="0 0 0 0 0 0 0 0 0 0 0 0 0 0 0 0 0 0 0.25 0"/>
<feBlend mode="normal" in2="BackgroundImageFix" result="effect1_dropShadow_438_269"/>
<feBlend mode="normal" in="SourceGraphic" in2="effect1_dropShadow_438_269" result="shape"/>
</filter>
<filter id="filter15_d_438_269" x="300.414" y="138.414" width="30.1719" height="30.1716" filterUnits="userSpaceOnUse" color-interpolation-filters="sRGB">
<feFlood flood-opacity="0" result="BackgroundImageFix"/>
<feColorMatrix in="SourceAlpha" type="matrix" values="0 0 0 0 0 0 0 0 0 0 0 0 0 0 0 0 0 0 127 0" result="hardAlpha"/>
<feOffset dy="4"/>
<feGaussianBlur stdDeviation="2"/>
<feComposite in2="hardAlpha" operator="out"/>
<feColorMatrix type="matrix" values="0 0 0 0 0 0 0 0 0 0 0 0 0 0 0 0 0 0 0.25 0"/>
<feBlend mode="normal" in2="BackgroundImageFix" result="effect1_dropShadow_438_269"/>
<feBlend mode="normal" in="SourceGraphic" in2="effect1_dropShadow_438_269" result="shape"/>
</filter>
<linearGradient id="paint0_linear_438_269" x1="57" y1="316.066" x2="101.133" y2="316.066" gradientUnits="userSpaceOnUse">
<stop stop-color="#25D3EE"/>
<stop offset="0.518448" stop-color="#25D3EE"/>
<stop offset="0.519911" stop-color="#FBBF25"/>
<stop offset="1" stop-color="#FBBF25"/>
</linearGradient>
<linearGradient id="paint1_linear_438_269" x1="531" y1="316.066" x2="575.133" y2="316.066" gradientUnits="userSpaceOnUse">
<stop stop-color="#25D3EE"/>
<stop offset="0.518448" stop-color="#25D3EE"/>
<stop offset="0.519911" stop-color="#FBBF25"/>
<stop offset="1" stop-color="#FBBF25"/>
</linearGradient>
<linearGradient id="paint2_linear_438_269" x1="69" y1="383.5" x2="89" y2="383.5" gradientUnits="userSpaceOnUse">
<stop offset="0.0001" stop-color="white"/>
<stop offset="0.395833" stop-color="#D9D9D9"/>
<stop offset="1" stop-color="#F3F3F3"/>
</linearGradient>
<linearGradient id="paint3_linear_438_269" x1="543" y1="383.5" x2="563" y2="383.5" gradientUnits="userSpaceOnUse">
<stop offset="0.0001" stop-color="white"/>
<stop offset="0.395833" stop-color="#D9D9D9"/>
<stop offset="1" stop-color="#F3F3F3"/>
</linearGradient>
<linearGradient id="paint4_linear_438_269" x1="62" y1="374.571" x2="95" y2="374.571" gradientUnits="userSpaceOnUse">
<stop stop-color="#F9F9F9"/>
<stop offset="1" stop-color="#D9D9D9"/>
</linearGradient>
<linearGradient id="paint5_linear_438_269" x1="536" y1="374.571" x2="569" y2="374.571" gradientUnits="userSpaceOnUse">
<stop stop-color="#F9F9F9"/>
<stop offset="1" stop-color="#D9D9D9"/>
</linearGradient>
<radialGradient id="paint6_radial_438_269" cx="0" cy="0" r="1" gradientUnits="userSpaceOnUse" gradientTransform="translate(79 324) rotate(90.5729) scale(50.0025 183.342)">
<stop stop-color="white"/>
<stop offset="1" stop-color="#D9D9D9"/>
</radialGradient>
<radialGradient id="paint7_radial_438_269" cx="0" cy="0" r="1" gradientUnits="userSpaceOnUse" gradientTransform="translate(553 324) rotate(90.5729) scale(50.0025 183.342)">
<stop stop-color="white"/>
<stop offset="1" stop-color="#D9D9D9"/>
</radialGradient>
<linearGradient id="paint8_linear_438_269" x1="291" y1="150.5" x2="342" y2="150.5" gradientUnits="userSpaceOnUse">
<stop stop-color="#D9D9D9"/>
<stop offset="0.441239" stop-color="white"/>
<stop offset="1" stop-color="#D6D6D6"/>
</linearGradient>
<radialGradient id="paint9_radial_438_269" cx="0" cy="0" r="1" gradientUnits="userSpaceOnUse" gradientTransform="translate(298 378.5) rotate(73.3457) scale(61.0614 122.123)">
<stop offset="0.022836" stop-color="#EFEFEF"/>
<stop offset="1" stop-color="#CACACA"/>
</radialGradient>
<linearGradient id="paint10_linear_438_269" x1="233" y1="20.5" x2="398" y2="20.5" gradientUnits="userSpaceOnUse">
<stop stop-color="white"/>
<stop offset="1" stop-color="#D9D9D9"/>
</linearGradient>
<linearGradient id="paint11_linear_438_269" x1="303" y1="33.5279" x2="326" y2="33.5279" gradientUnits="userSpaceOnUse">
<stop stop-color="white"/>
<stop offset="1" stop-color="#D9D9D9"/>
</linearGradient>
<linearGradient id="paint12_linear_438_269" x1="288" y1="14.9869" x2="341" y2="14.9869" gradientUnits="userSpaceOnUse">
<stop stop-color="white"/>
<stop offset="1" stop-color="#D9D9D9"/>
</linearGradient>
</defs>
</svg>
