<svg width="32" height="29" viewBox="0 0 32 29" fill="none" xmlns="http://www.w3.org/2000/svg">
<path d="M16.6836 16.6725C15.8227 16.6715 15.0391 16.2206 13.4719 15.3167L13.4729 15.3157L6.8796 11.5158C6.06185 11.0438 5.05321 11.0449 4.23546 11.5178C3.31222 12.0529 2.74461 13.037 2.74461 14.1022V15.6253C2.75566 17.5533 3.78338 19.332 5.45104 20.307L5.5073 20.3391L13.4679 24.9316C15.0361 25.8365 15.8217 26.2894 16.6836 26.2894C17.5451 26.2904 18.3293 25.839 19.8977 24.9362L19.9004 24.9346L28.4115 20.0345L28.4182 20.0306C28.8065 19.8067 29.0008 19.6947 29.1077 19.5094C29.2152 19.323 29.2152 19.0975 29.2152 18.6456V18.6456V17.0593V17.0593C29.2152 16.7507 29.2152 16.5963 29.1147 16.5382C29.0143 16.4811 28.8807 16.5573 28.6124 16.7116L18.291 22.6539C17.5064 23.1058 17.1146 23.3313 16.6826 23.3313C16.2527 23.3313 15.8599 23.1058 15.0753 22.6529L6.65457 17.7988L6.63624 17.7883C6.35805 17.6279 6.21605 17.5461 6.10002 17.4441C5.83581 17.2136 5.65498 16.902 5.58465 16.5583C5.55251 16.4039 5.5515 16.2366 5.5505 15.9029C5.54748 15.447 5.54648 15.2195 5.60676 15.0712C5.74439 14.7345 6.09198 14.5331 6.45365 14.5792C6.60996 14.5988 6.80187 14.7086 7.18096 14.9255L7.2061 14.9399L15.0803 19.4543C15.8629 19.9032 16.2537 20.1266 16.6826 20.1266C17.1121 20.1266 17.5025 19.9027 18.2833 19.4548L18.286 19.4532L29.9235 12.7724C30.3524 12.5269 30.8799 12.5279 31.3078 12.7744C31.7358 13.0209 31.999 13.4769 32 13.9699V17.4711C32 19.2789 32 20.1828 31.569 20.9263C31.138 21.6708 30.3534 22.1228 28.7842 23.0256L23.1162 26.2894C19.9768 28.0971 18.4066 29 16.6836 29C14.9606 28.999 13.3921 28.095 10.2568 26.2881L10.2521 26.2854L4.88946 23.193L4.75183 23.1128C1.83041 21.3973 0.02612 18.2788 0 14.8978V14.5832C0.0271246 11.1982 1.83443 8.07671 4.76087 6.36317C4.79302 6.34312 4.82818 6.32308 4.8975 6.283L13.4749 1.3518C15.0401 0.450933 15.8237 0 16.6836 0C17.5426 0 18.3262 0.448929 19.8934 1.34879L29.8742 7.07965C30.3253 7.33818 30.6036 7.81818 30.6036 8.33725C30.6036 8.85632 30.3253 9.33632 29.8742 9.59485L19.8964 15.3227L19.8936 15.3243C18.3273 16.2231 17.5441 16.6725 16.6836 16.6725Z" fill="#DEE5E5"/>
</svg>
