<svg width="242" height="243" viewBox="0 0 242 243" fill="none" xmlns="http://www.w3.org/2000/svg">
    <g id="Adscendo logo">
        <g id="&#233;&#187;&#145;&#231;&#153;&#189;">
            <g id="Group 7">
                <path id="Union (Stroke) (Stroke)" fill-rule="evenodd" clip-rule="evenodd"
                      d="M134.662 170.416L149.941 174.25C154.148 175.306 158.569 175.871 163.147 175.871C192.986 175.871 217.175 151.682 217.175 121.843C217.175 92.0036 192.986 67.8142 163.147 67.8142C158.569 67.8142 154.148 68.3795 149.941 69.4352L134.662 73.2691L128.566 58.7431C120.384 39.2432 101.124 25.5992 78.717 25.5992C48.8779 25.5992 24.6885 49.7886 24.6885 79.6278C24.6885 91.413 28.4406 102.267 34.8182 111.133L42.5226 121.843L34.8182 132.553C28.4406 141.418 24.6885 152.272 24.6885 164.058C24.6885 193.897 48.8779 218.086 78.717 218.086C101.124 218.086 120.384 204.442 128.566 184.942L134.662 170.416ZM138.364 65.8668L134.356 56.3137C125.228 34.5615 103.738 19.3207 78.717 19.3207C45.4103 19.3207 18.4099 46.3211 18.4099 79.6278C18.4099 92.7716 22.6008 104.901 29.7214 114.799L34.7883 121.843L29.7214 128.886C22.6008 138.785 18.4099 150.914 18.4099 164.058C18.4099 197.364 45.4103 224.365 78.717 224.365C103.738 224.365 125.228 209.124 134.356 187.372L138.364 177.819L148.413 180.34C153.116 181.52 158.049 182.15 163.147 182.15C196.454 182.15 223.454 155.149 223.454 121.843C223.454 88.536 196.454 61.5356 163.147 61.5356C158.049 61.5356 153.116 62.1654 148.413 63.3454L138.364 65.8668ZM149.077 44.4518C136.17 18.6851 109.518 0.980713 78.717 0.980713C35.2814 0.980713 0.0699463 36.1922 0.0699463 79.6278C0.0699463 95.1545 4.5753 109.644 12.3492 121.843C4.5753 134.041 0.0699523 148.531 0.06995 164.058C0.06995 207.493 35.2814 242.705 78.717 242.705C109.518 242.705 136.17 225 149.077 199.234C153.646 200.059 158.348 200.49 163.147 200.49C206.582 200.49 241.794 165.278 241.794 121.843C241.794 78.4071 206.582 43.1957 163.147 43.1957C158.348 43.1957 153.646 43.6262 149.077 44.4518ZM145.478 192.039C151.133 193.458 157.052 194.211 163.147 194.211C203.115 194.211 235.515 161.811 235.515 121.843C235.515 81.8747 203.115 49.4742 163.147 49.4742C157.052 49.4742 151.133 50.2277 145.478 51.6467C134.536 25.5725 108.765 7.25926 78.717 7.25926C38.749 7.25926 6.34849 39.6597 6.34849 79.6278C6.34849 95.3822 11.3827 109.961 19.9302 121.843C11.3827 133.725 6.3485 148.303 6.34849 164.058C6.34849 204.026 38.749 236.426 78.717 236.426C108.765 236.426 134.536 218.113 145.478 192.039Z"
                      fill="currentColor"/>
                <path id="Subtract (Stroke)" fill-rule="evenodd" clip-rule="evenodd"
                      d="M70.7437 121.843C77.9523 130.573 87.8024 137.462 99.2619 141.477C94.756 136.196 92.0385 129.329 92.0385 121.843C92.0385 114.356 94.756 107.489 99.2619 102.208C87.8024 106.223 77.9523 113.112 70.7437 121.843ZM116.124 92.2786C93.7694 94.104 74.3978 105.439 62.8511 121.843C74.3978 138.246 93.7696 149.581 116.124 151.407C118.05 151.564 119.998 151.651 121.965 151.664C122.143 151.665 122.32 151.666 122.497 151.666C124.066 151.666 125.622 151.619 127.165 151.527C150.238 150.153 170.304 138.662 182.143 121.843C170.304 105.023 150.238 93.5326 127.165 92.1581C125.622 92.0662 124.066 92.0195 122.497 92.0195C122.32 92.0195 122.143 92.0201 121.965 92.0213C119.998 92.0346 118.05 92.1213 116.124 92.2786ZM126.402 98.4034C125.133 98.1604 123.829 98.0197 122.497 97.9901C122.32 97.9861 122.143 97.9841 121.965 97.9841C120.272 97.9841 118.619 98.1638 117.026 98.5053C106.337 100.797 98.317 110.375 98.317 121.843C98.317 133.31 106.337 142.889 117.027 145.18C118.62 145.521 120.272 145.701 121.965 145.701C122.143 145.701 122.32 145.699 122.497 145.695C123.829 145.665 125.133 145.525 126.402 145.282C137.342 143.187 145.614 133.489 145.614 121.843C145.614 110.196 137.342 100.498 126.402 98.4034ZM144.225 141.986C148.996 136.64 151.892 129.572 151.892 121.843C151.892 114.113 148.996 107.045 144.225 101.699C156.328 105.626 166.728 112.731 174.251 121.843C166.728 130.954 156.328 138.059 144.225 141.986Z"
                      fill="currentColor"/>
                <path id="Subtract (Stroke)_2" fill-rule="evenodd" clip-rule="evenodd"
                      d="M45.564 121.844C62.6485 143.61 90.6598 157.945 122.502 157.945C154.345 157.945 182.356 143.61 199.441 121.844C182.356 100.077 154.345 85.7419 122.502 85.7419C90.6598 85.7419 62.6485 100.077 45.564 121.844ZM207.263 121.844C189.313 147.343 158.057 164.224 122.502 164.224C86.9476 164.224 55.6915 147.343 37.742 121.844C55.6915 96.344 86.9476 79.4634 122.502 79.4634C158.057 79.4634 189.313 96.344 207.263 121.844Z"
                      fill="currentColor"/>
                <path id="Ellipse 32 (Stroke)" fill-rule="evenodd" clip-rule="evenodd"
                      d="M120.937 123.411C123.538 123.411 125.646 121.303 125.646 118.703C125.646 116.102 123.538 113.994 120.937 113.994C118.336 113.994 116.228 116.102 116.228 118.703C116.228 121.303 118.336 123.411 120.937 123.411ZM120.937 129.69C127.005 129.69 131.924 124.771 131.924 118.703C131.924 112.634 127.005 107.715 120.937 107.715C114.869 107.715 109.95 112.634 109.95 118.703C109.95 124.771 114.869 129.69 120.937 129.69Z"
                      fill="currentColor"/>
            </g>
        </g>
    </g>
</svg>
