<svg width="23" height="32" viewBox="0 0 23 32" fill="none" xmlns="http://www.w3.org/2000/svg">
<g id="steth-steth 1" clip-path="url(#clip0_286_288)">
<path id="Vector" d="M2.09153 14.4L1.84538 14.7693C-0.985388 19.2 -0.370004 24.9846 3.44538 28.6769C5.53769 30.8923 8.49154 32 11.4454 32C11.4454 32 11.4454 32 2.09153 14.4Z" fill="#00A3FF"/>
<path id="Vector_2" opacity="0.6" d="M11.4456 19.6923L2.0918 14.2769C11.4456 32 11.4456 32 11.4456 32C11.4456 28.1846 11.4456 23.7538 11.4456 19.6923Z" fill="#00A3FF"/>
<path id="Vector_3" opacity="0.6" d="M20.7992 14.4L21.0453 14.7693C23.8761 19.2 23.2607 24.9846 19.4453 28.6769C17.2299 30.8923 14.3992 32 11.4453 32C11.4453 32 11.4453 32 20.7992 14.4Z" fill="#00A3FF"/>
<path id="Vector_4" opacity="0.2" d="M11.4453 19.6923L20.7992 14.2769C11.4453 32 11.4453 32 11.4453 32C11.4453 28.1846 11.4453 23.7538 11.4453 19.6923Z" fill="#00A3FF"/>
<path id="Vector_5" opacity="0.2" d="M11.4453 7.75385V16.9846L19.5684 12.4308L11.4453 7.75385Z" fill="#00A3FF"/>
<path id="Vector_6" opacity="0.6" d="M11.4453 7.75385L3.32227 12.4308L11.4453 16.9846V7.75385Z" fill="#00A3FF"/>
<path id="Vector_7" d="M11.4453 0L3.32227 12.4308L11.4453 7.75385V0Z" fill="#00A3FF"/>
<path id="Vector_8" opacity="0.6" d="M11.4453 7.75385L19.5684 12.4308L11.4453 0V7.75385Z" fill="#00A3FF"/>
</g>
<defs>
<clipPath id="clip0_286_288">
<rect width="22.8923" height="32" fill="white"/>
</clipPath>
</defs>
</svg>
