<svg width="200" height="56" viewBox="0 0 200 56" fill="none" xmlns="http://www.w3.org/2000/svg">
<path d="M0.609868 54.897L3.72276 46.7195L44.2808 12.4163H16.8944L21.4222 0.521626H68.9222L65.8093 8.69918L25.2514 43.0024H52.6377L48.1099 54.897H0.609868ZM76.7828 55.6405C72.1238 55.6405 68.4253 54.8085 65.6874 53.1447C62.9753 51.4632 61.3064 49.0559 60.6808 45.923C60.0809 42.7723 60.6164 39.0021 62.2874 34.6125C63.891 30.3998 66.2016 26.7181 69.2191 23.5675C72.2367 20.4168 75.7361 17.9653 79.7176 16.213C83.699 14.4606 87.9435 13.5845 92.4511 13.5845C95.7466 13.5845 98.5476 14.0624 100.854 15.0182C103.161 15.974 104.914 17.3635 106.114 19.1866C107.321 20.9921 107.944 23.1869 107.983 25.7712C108.022 28.3554 107.425 31.2671 106.191 34.5063L104.898 37.9047H65.9206L68.993 29.8334H93.5385C93.9642 28.6652 94.0331 27.6385 93.745 26.7535C93.4825 25.8508 92.9248 25.1516 92.0718 24.656C91.2445 24.1427 90.1774 23.8861 88.8706 23.8861C87.6016 23.8861 86.3392 24.1427 85.0832 24.656C83.8339 25.1516 82.7189 25.842 81.738 26.727C80.7761 27.612 80.0505 28.6475 79.5612 29.8334L76.2462 38.5419C75.7476 39.8518 75.5964 41.02 75.7928 42.0466C75.9891 43.0732 76.5253 43.8786 77.4014 44.4627C78.2776 45.0468 79.4922 45.3389 81.0452 45.3389C82.1247 45.3389 83.1635 45.1973 84.1614 44.9141C85.1783 44.6309 86.1098 44.2237 86.9559 43.6927C87.8087 43.144 88.5315 42.4891 89.1243 41.728H103.442C101.872 44.5601 99.7706 47.0204 97.1384 49.109C94.513 51.18 91.4661 52.7907 87.9979 53.9412C84.5553 55.0741 80.8169 55.6405 76.7828 55.6405ZM155.186 27.3907H140.754C140.995 26.5588 140.955 25.842 140.635 25.2401C140.315 24.6383 139.78 24.1781 139.03 23.8595C138.306 23.5232 137.423 23.3551 136.381 23.3551C135.036 23.3551 133.793 23.5852 132.652 24.0454C131.511 24.5056 130.788 25.1605 130.484 26.0101C130.236 26.6119 130.298 27.1695 130.671 27.6828C131.063 28.1961 132.038 28.5944 133.597 28.8776L141.895 30.3644C146.075 31.1255 148.91 32.4088 150.401 34.2142C151.917 36.0019 152.112 38.4003 150.986 41.4094C149.862 44.3122 147.973 46.8345 145.321 48.9763C142.694 51.1003 139.577 52.7465 135.97 53.9147C132.388 55.0652 128.58 55.6405 124.546 55.6405C117.879 55.6405 113.146 54.366 110.348 51.8172C107.568 49.2683 106.755 45.9053 107.91 41.728H123.478C123.194 43.0201 123.496 44.0202 124.381 44.7282C125.293 45.4185 126.639 45.7637 128.419 45.7637C129.858 45.7637 131.13 45.5336 132.233 45.0734C133.355 44.6132 134.087 43.9582 134.43 43.1086C134.707 42.3298 134.526 41.7103 133.887 41.2501C133.267 40.7899 132.158 40.4182 130.562 40.135L123.319 38.8605C119.145 38.1348 116.337 36.7542 114.896 34.7187C113.455 32.6831 113.354 30.0635 114.592 26.8597C115.651 24.0277 117.36 21.6293 119.718 19.6645C122.101 17.6821 124.994 16.1776 128.396 15.151C131.824 14.1066 135.612 13.5845 139.759 13.5845C146.066 13.5845 150.573 14.8058 153.279 17.2484C156.005 19.6911 156.64 23.0718 155.186 27.3907ZM193.407 14.1155L189.364 24.7357H160.614L164.657 14.1155H193.407ZM173.944 4.3449H189.626L175.375 41.7811C175.16 42.3475 175.082 42.8254 175.142 43.2148C175.209 43.5865 175.423 43.8697 175.785 44.0644C176.153 44.2414 176.678 44.3299 177.36 44.3299C177.833 44.3299 178.403 44.2768 179.068 44.1706C179.752 44.0644 180.26 43.9759 180.59 43.9051L178.941 54.2067C178.166 54.4014 177.071 54.6404 175.657 54.9236C174.261 55.2068 172.656 55.3927 170.842 55.4812C167.176 55.6582 164.287 55.313 162.174 54.4457C160.067 53.5607 158.759 52.1712 158.249 50.2773C157.739 48.3833 158.045 46.0115 159.168 43.1617L173.944 4.3449Z" fill="#F4AA26"/>
</svg>
