<svg width="237" height="238" viewBox="0 0 237 238" fill="none" xmlns="http://www.w3.org/2000/svg">
<g id="Arrow 5" filter="url(#filter0_d_226_110)">
<path d="M31.0007 213.277C28.5154 213.277 26.5006 211.262 26.5007 208.777L26.5006 168.277C26.5007 165.791 28.5154 163.777 31.0007 163.777C33.4859 163.777 35.5007 165.791 35.5007 168.277L35.5007 204.277L71.5007 204.277C73.9859 204.277 76.0007 206.291 76.0007 208.777C76.0006 211.262 73.9859 213.277 71.5006 213.277L31.0007 213.277ZM210.959 35.182L34.1826 211.959L27.8187 205.595L204.595 28.818L210.959 35.182Z" fill="url(#paint0_linear_226_110)" fill-opacity="0.5"/>
</g>
<defs>
<filter id="filter0_d_226_110" x="0.500977" y="0.817993" width="236.458" height="236.459" filterUnits="userSpaceOnUse" color-interpolation-filters="sRGB">
<feFlood flood-opacity="0" result="BackgroundImageFix"/>
<feColorMatrix in="SourceAlpha" type="matrix" values="0 0 0 0 0 0 0 0 0 0 0 0 0 0 0 0 0 0 127 0" result="hardAlpha"/>
<feOffset dy="-2"/>
<feGaussianBlur stdDeviation="13"/>
<feColorMatrix type="matrix" values="0 0 0 0 0.956863 0 0 0 0 0.666667 0 0 0 0 0.14902 0 0 0 0.24 0"/>
<feBlend mode="normal" in2="BackgroundImageFix" result="effect1_dropShadow_226_110"/>
<feBlend mode="normal" in="SourceGraphic" in2="effect1_dropShadow_226_110" result="shape"/>
</filter>
<linearGradient id="paint0_linear_226_110" x1="208.485" y1="32.7073" x2="31.7078" y2="209.484" gradientUnits="userSpaceOnUse">
<stop stop-color="#F4AA26" stop-opacity="0"/>
<stop offset="1" stop-color="#F4AA26"/>
</linearGradient>
</defs>
</svg>
